<?xml version="1.0" encoding="utf-8"?>
<COLLADA xmlns="http://www.collada.org/2005/11/COLLADASchema" version="1.4.1" xmlns:xsi="http://www.w3.org/2001/XMLSchema-instance">
  <asset>
    <contributor>
      <author>Blender User</author>
      <authoring_tool>Blender 2.79.0 commit date:2018-03-22, commit time:14:10, hash:f4dc9f9d68b</authoring_tool>
    </contributor>
    <created>2020-06-15T17:24:27</created>
    <modified>2020-06-15T17:24:27</modified>
    <unit name="meter" meter="1"/>
    <up_axis>Z_UP</up_axis>
  </asset>
  <library_images/>
  <library_effects>
    <effect id="Material-effect">
      <profile_COMMON>
        <technique sid="common">
          <phong>
            <emission>
              <color sid="emission">0 0 0 1</color>
            </emission>
            <ambient>
              <color sid="ambient">0 0 0 1</color>
            </ambient>
            <diffuse>
              <color sid="diffuse">0.64 0.64 0.64 1</color>
            </diffuse>
            <specular>
              <color sid="specular">0.5 0.5 0.5 1</color>
            </specular>
            <shininess>
              <float sid="shininess">50</float>
            </shininess>
            <index_of_refraction>
              <float sid="index_of_refraction">1</float>
            </index_of_refraction>
          </phong>
        </technique>
      </profile_COMMON>
    </effect>
    <effect id="SVGMat_009-effect">
      <profile_COMMON>
        <technique sid="common">
          <phong>
            <emission>
              <color sid="emission">0 0 0 1</color>
            </emission>
            <ambient>
              <color sid="ambient">0 0 0 1</color>
            </ambient>
            <diffuse>
              <color sid="diffuse">9.03153e-4 0.07397948 0.3343235 1</color>
            </diffuse>
            <specular>
              <color sid="specular">0.5 0.5 0.5 1</color>
            </specular>
            <shininess>
              <float sid="shininess">50</float>
            </shininess>
            <index_of_refraction>
              <float sid="index_of_refraction">1</float>
            </index_of_refraction>
          </phong>
        </technique>
      </profile_COMMON>
    </effect>
    <effect id="Material_001-effect">
      <profile_COMMON>
        <technique sid="common">
          <phong>
            <emission>
              <color sid="emission">0 0 0 1</color>
            </emission>
            <ambient>
              <color sid="ambient">0 0 0 1</color>
            </ambient>
            <diffuse>
              <color sid="diffuse">1 1 1 1</color>
            </diffuse>
            <specular>
              <color sid="specular">1 1 1 1</color>
            </specular>
            <shininess>
              <float sid="shininess">50</float>
            </shininess>
            <index_of_refraction>
              <float sid="index_of_refraction">1</float>
            </index_of_refraction>
          </phong>
        </technique>
      </profile_COMMON>
    </effect>
  </library_effects>
  <library_materials>
    <material id="Material-material" name="Material">
      <instance_effect url="#Material-effect"/>
    </material>
    <material id="SVGMat_009-material" name="SVGMat_009">
      <instance_effect url="#SVGMat_009-effect"/>
    </material>
    <material id="Material_001-material" name="Material_001">
      <instance_effect url="#Material_001-effect"/>
    </material>
  </library_materials>
  <library_geometries>
    <geometry id="Cube_002-mesh" name="Cube.002">
      <mesh>
        <source id="Cube_002-mesh-positions">
          <float_array id="Cube_002-mesh-positions-array" count="51">-1 -1 -1 -1 -1 1 -1 1 -1 -1 1 1 1 -1 -1 1 -1 1 1 1 -1 1 1 1 -0.9736841 -0.9358972 1 -0.973684 -0.9358972 -1 0.9736846 -0.9358972 1 0.9736846 -0.9358972 -1 -0.9736841 0.02807712 -1 -0.9736841 0.9358977 1 -0.973684 0.9358977 -1 0.9736846 0.9358977 1 0.9736846 0.9358977 -1</float_array>
          <technique_common>
            <accessor source="#Cube_002-mesh-positions-array" count="17" stride="3">
              <param name="X" type="float"/>
              <param name="Y" type="float"/>
              <param name="Z" type="float"/>
            </accessor>
          </technique_common>
        </source>
        <source id="Cube_002-mesh-normals">
          <float_array id="Cube_002-mesh-normals-array" count="24">-1 0 0 0 1 0 1 0 0 0 -1 0 0 0 -1 0 0 1 1 0 0 0 -1 0</float_array>
          <technique_common>
            <accessor source="#Cube_002-mesh-normals-array" count="8" stride="3">
              <param name="X" type="float"/>
              <param name="Y" type="float"/>
              <param name="Z" type="float"/>
            </accessor>
          </technique_common>
        </source>
        <vertices id="Cube_002-mesh-vertices">
          <input semantic="POSITION" source="#Cube_002-mesh-positions"/>
        </vertices>
        <triangles material="Material-material" count="34">
          <input semantic="VERTEX" source="#Cube_002-mesh-vertices" offset="0"/>
          <input semantic="NORMAL" source="#Cube_002-mesh-normals" offset="1"/>
          <p>1 0 2 0 0 0 3 1 6 1 2 1 7 2 4 2 6 2 5 3 0 3 4 3 2 4 6 4 14 4 8 5 1 5 5 5 10 0 16 0 11 0 15 3 14 3 16 3 13 5 7 5 3 5 8 6 9 6 12 6 8 1 11 1 9 1 9 4 0 4 12 4 1 0 3 0 2 0 3 1 7 1 6 1 7 2 5 2 4 2 5 3 1 3 0 3 6 4 4 4 11 4 6 4 11 4 16 4 14 4 12 4 2 4 6 4 16 4 14 4 5 5 7 5 10 5 7 5 15 5 10 5 10 5 8 5 5 5 10 0 15 0 16 0 15 7 13 7 14 7 3 5 1 5 8 5 13 5 15 5 7 5 3 5 8 5 13 5 12 6 14 6 13 6 13 2 8 2 12 2 8 1 10 1 11 1 9 4 11 4 4 4 0 4 2 4 12 4 9 4 4 4 0 4</p>
        </triangles>
      </mesh>
    </geometry>
    <geometry id="CUpath3485-mesh" name="CUpath3485">
      <mesh>
        <source id="CUpath3485-mesh-positions">
          <float_array id="CUpath3485-mesh-positions-array" count="237">0.06508052 0.1633944 0 0.06508052 0.1639164 0 0.06696087 0.1639164 0 0.06696087 0.1633944 0 0.06696087 0.1646748 0 0.06696087 0.1641633 0 0.06508052 0.1641633 0 0.06508052 0.1646748 0 0.06696087 0.1654472 0 0.06696087 0.1649217 0 0.06508052 0.1649217 0 0.06508052 0.1654472 0 0.06596601 0.1656976 0 0.06598109 0.1657316 0 0.06599622 0.1657665 0 0.06601142 0.1658022 0 0.06602668 0.1658387 0 0.06604182 0.1658757 0 0.06605684 0.1659132 0 0.0660718 0.1659511 0 0.06608647 0.1659892 0 0.06610095 0.1660274 0 0.06611514 0.1660658 0 0.06612896 0.166104 0 0.06614243 0.166142 0 0.06613844 0.1661425 0 0.06612718 0.166144 0 0.06610965 0.1661463 0 0.06608688 0.1661492 0 0.06606 0.1661527 0 0.06602996 0.1661565 0 0.06599789 0.1661607 0 0.06596475 0.166165 0 0.06593155 0.1661693 0 0.06589949 0.1661735 0 0.06586945 0.1661773 0 0.06584256 0.1661808 0 0.06583493 0.1661454 0 0.06582623 0.166108 0 0.06581658 0.1660691 0 0.06580609 0.1660289 0 0.06579488 0.1659877 0 0.06578302 0.1659458 0 0.06577068 0.1659036 0 0.06575787 0.1658613 0 0.06574481 0.1658192 0 0.06573158 0.1657778 0 0.06571823 0.1657371 0 0.065705 0.1656976 0 0.06569319 0.1656976 0 0.06565988 0.1656976 0 0.06560814 0.1656976 0 0.06554096 0.1656976 0 0.06546157 0.1656976 0 0.06537288 0.1656976 0 0.06527811 0.1656976 0 0.06518024 0.1656976 0 0.06508237 0.1656976 0 0.06498754 0.1656976 0 0.0648989 0.1656976 0 0.06481945 0.1656976 0 0.06481945 0.16295 0 0.06508052 0.16295 0 0.06508052 0.1631475 0 0.06696087 0.1631475 0 0.06696087 0.1629676 0 0.06723254 0.1629676 0 0.06723254 0.1656976 0 0.06711894 0.1656976 0 0.0669921 0.1656976 0 0.06685656 0.1656976 0 0.06671655 0.1656976 0 0.06657654 0.1656976 0 0.06644093 0.1656976 0 0.06631416 0.1656976 0 0.06620055 0.1656976 0 0.06610453 0.1656976 0 0.0660305 0.1656976 0 0.06598287 0.1656976 0</float_array>
          <technique_common>
            <accessor source="#CUpath3485-mesh-positions-array" count="79" stride="3">
              <param name="X" type="float"/>
              <param name="Y" type="float"/>
              <param name="Z" type="float"/>
            </accessor>
          </technique_common>
        </source>
        <source id="CUpath3485-mesh-normals">
          <float_array id="CUpath3485-mesh-normals-array" count="3">0 0 1</float_array>
          <technique_common>
            <accessor source="#CUpath3485-mesh-normals-array" count="1" stride="3">
              <param name="X" type="float"/>
              <param name="Y" type="float"/>
              <param name="Z" type="float"/>
            </accessor>
          </technique_common>
        </source>
        <vertices id="CUpath3485-mesh-vertices">
          <input semantic="POSITION" source="#CUpath3485-mesh-positions"/>
        </vertices>
        <triangles material="SVGMat_009-material" count="83">
          <input semantic="VERTEX" source="#CUpath3485-mesh-vertices" offset="0"/>
          <input semantic="NORMAL" source="#CUpath3485-mesh-normals" offset="1"/>
          <p>37 0 35 0 36 0 37 0 34 0 35 0 37 0 33 0 34 0 37 0 32 0 33 0 37 0 31 0 32 0 37 0 30 0 31 0 37 0 29 0 30 0 37 0 28 0 29 0 37 0 27 0 28 0 37 0 26 0 27 0 38 0 26 0 37 0 38 0 25 0 26 0 38 0 24 0 25 0 38 0 23 0 24 0 39 0 23 0 38 0 39 0 22 0 23 0 40 0 22 0 39 0 40 0 21 0 22 0 41 0 21 0 40 0 41 0 20 0 21 0 41 0 19 0 20 0 42 0 19 0 41 0 42 0 18 0 19 0 43 0 18 0 42 0 43 0 17 0 18 0 44 0 17 0 43 0 44 0 16 0 17 0 45 0 16 0 44 0 45 0 15 0 16 0 46 0 15 0 45 0 46 0 14 0 15 0 47 0 14 0 46 0 47 0 13 0 14 0 48 0 13 0 47 0 48 0 12 0 13 0 61 0 59 0 60 0 61 0 58 0 59 0 61 0 57 0 58 0 61 0 11 0 57 0 11 0 56 0 57 0 11 0 55 0 56 0 11 0 54 0 55 0 11 0 53 0 54 0 11 0 52 0 53 0 11 0 51 0 52 0 11 0 50 0 51 0 11 0 49 0 50 0 11 0 48 0 49 0 11 0 12 0 48 0 11 0 78 0 12 0 11 0 77 0 78 0 11 0 76 0 77 0 11 0 75 0 76 0 11 0 74 0 75 0 11 0 73 0 74 0 11 0 72 0 73 0 11 0 71 0 72 0 11 0 70 0 71 0 11 0 69 0 70 0 11 0 68 0 69 0 11 0 67 0 68 0 11 0 8 0 67 0 8 0 66 0 67 0 61 0 10 0 11 0 9 0 66 0 8 0 61 0 7 0 10 0 7 0 9 0 10 0 7 0 4 0 9 0 4 0 66 0 9 0 61 0 6 0 7 0 5 0 66 0 4 0 61 0 1 0 6 0 1 0 5 0 6 0 1 0 2 0 5 0 2 0 66 0 5 0 61 0 0 0 1 0 3 0 66 0 2 0 61 0 63 0 0 0 63 0 3 0 0 0 63 0 64 0 3 0 64 0 66 0 3 0 61 0 62 0 63 0 65 0 66 0 64 0</p>
        </triangles>
      </mesh>
    </geometry>
    <geometry id="CUpath3487-mesh" name="CUpath3487">
      <mesh>
        <source id="CUpath3487-mesh-positions">
          <float_array id="CUpath3487-mesh-positions-array" count="1626">0.06814974 0.162957 0 0.06818604 0.162998 0 0.06822246 0.1630411 0 0.06825894 0.1630861 0 0.06829518 0.1631324 0 0.06833118 0.1631796 0 0.06836676 0.1632273 0 0.06840169 0.1632751 0 0.0684359 0.1633226 0 0.06846928 0.1633692 0 0.06850159 0.1634147 0 0.0685327 0.1634585 0 0.0685625 0.1635002 0 0.0685597 0.1635017 0 0.06855177 0.1635062 0 0.06853938 0.163513 0 0.06852334 0.1635218 0 0.06850433 0.1635322 0 0.06848317 0.1635439 0 0.06846046 0.1635563 0 0.06843709 0.1635692 0 0.06841367 0.163582 0 0.06839102 0.1635945 0 0.06836986 0.1636062 0 0.06835085 0.1636166 0 0.06832408 0.1635755 0 0.068295 0.1635321 0 0.06826394 0.1634868 0 0.06823104 0.1634402 0 0.06819659 0.163393 0 0.06816077 0.1633455 0 0.06812387 0.1632984 0 0.06808614 0.1632522 0 0.06804776 0.1632074 0 0.06800895 0.1631647 0 0.06796997 0.1631246 0 0.06793105 0.1630876 0 0.06793534 0.163085 0 0.06794726 0.1630779 0 0.0679652 0.1630672 0 0.06798774 0.1630537 0 0.06801331 0.1630384 0 0.06804043 0.1630223 0 0.06806749 0.1630061 0 0.06809306 0.1629909 0 0.06811559 0.1629774 0 0.06813359 0.1629667 0 0.06814545 0.1629596 0 0.07072508 0.1653555 0 0.06999129 0.1653555 0 0.06999129 0.1657893 0 0.07072508 0.1657893 0 0.07098263 0.1659974 0 0.06974786 0.1659974 0 0.06974786 0.1651474 0 0.07098263 0.1651474 0 0.06929278 0.1657152 0 0.06928664 0.1656564 0 0.06928044 0.1656032 0 0.06927424 0.1655554 0 0.06926798 0.1655128 0 0.06926167 0.165475 0 0.06925529 0.1654419 0 0.06924885 0.1654132 0 0.06924235 0.1653887 0 0.06923574 0.165368 0 0.069229 0.1653511 0 0.06922215 0.1653376 0 0.06921517 0.1653273 0 0.06920892 0.1653215 0 0.06920248 0.1653166 0 0.06919586 0.1653124 0 0.06918895 0.165309 0 0.06918174 0.1653062 0 0.06917417 0.1653039 0 0.06916624 0.1653022 0 0.06915795 0.1653009 0 0.06914919 0.1653 0 0.06913995 0.1652994 0 0.06913024 0.1652991 0 0.06911993 0.165299 0 0.06910711 0.1652991 0 0.06909167 0.1652994 0 0.06907391 0.1652997 0 0.06905394 0.1653003 0 0.06903201 0.1653012 0 0.06900835 0.1653021 0 0.06898313 0.1653034 0 0.06895661 0.1653048 0 0.06892889 0.1653065 0 0.06890034 0.1653084 0 0.06887102 0.1653107 0 0.06884121 0.1653131 0 0.06884896 0.1652985 0 0.06885623 0.1652829 0 0.06886303 0.1652663 0 0.06886935 0.1652493 0 0.06887513 0.1652317 0 0.06888049 0.165214 0 0.06888526 0.1651961 0 0.06888955 0.1651783 0 0.06889331 0.1651608 0 0.06889653 0.1651439 0 0.06889915 0.1651276 0 0.06890118 0.1651121 0 0.06893378 0.1651105 0 0.06896615 0.1651092 0 0.06899803 0.1651081 0 0.06902927 0.1651073 0 0.06905949 0.1651067 0 0.06908863 0.1651064 0 0.06911635 0.1651062 0 0.0691424 0.1651064 0 0.0691666 0.1651067 0 0.06918871 0.1651071 0 0.06920856 0.1651077 0 0.06922578 0.1651086 0 0.06924557 0.1651106 0 0.06926435 0.1651131 0 0.06928223 0.1651162 0 0.06929922 0.16512 0 0.06931537 0.1651244 0 0.06933075 0.1651297 0 0.06934535 0.1651359 0 0.0693593 0.1651431 0 0.06937259 0.1651512 0 0.06938534 0.1651605 0 0.0693975 0.1651709 0 0.06940919 0.1651827 0 0.06942534 0.1652024 0 0.06944018 0.1652268 0 0.06945389 0.1652562 0 0.06946659 0.1652911 0 0.06947827 0.165332 0 0.06948906 0.1653793 0 0.06949901 0.1654335 0 0.06950825 0.1654951 0 0.06951689 0.1655645 0 0.06952494 0.1656423 0 0.06953251 0.1657288 0 0.06953972 0.1658246 0 0.06954139 0.165834 0 0.0695427 0.1658442 0 0.06954383 0.1658549 0 0.06954473 0.1658658 0 0.06954538 0.1658768 0 0.06954592 0.1658872 0 0.06954628 0.1658969 0 0.06954652 0.1659056 0 0.06954669 0.1659129 0 0.06954675 0.1659185 0 0.06954681 0.1659221 0 0.06954681 0.1659234 0 0.0695371 0.1659234 0 0.0695098 0.1659234 0 0.0694673 0.1659234 0 0.06941223 0.1659234 0 0.06934702 0.1659234 0 0.0692743 0.1659234 0 0.06919646 0.1659234 0 0.06911617 0.1659234 0 0.06903582 0.1659234 0 0.06895804 0.1659234 0 0.06888526 0.1659234 0 0.06882005 0.1659234 0 0.06882351 0.1659436 0 0.06882685 0.165964 0 0.06883001 0.1659843 0 0.06883299 0.1660047 0 0.06883585 0.1660252 0 0.06883859 0.1660459 0 0.06884115 0.1660667 0 0.0688436 0.1660877 0 0.06884586 0.1661089 0 0.06884801 0.1661302 0 0.06884998 0.1661518 0 0.06885182 0.1661738 0 0.06884855 0.1661738 0 0.06883925 0.1661738 0 0.06882482 0.1661738 0 0.06880611 0.1661738 0 0.06878393 0.1661738 0 0.0687592 0.1661738 0 0.06873279 0.1661738 0 0.06870549 0.1661738 0 0.0686782 0.1661738 0 0.06865173 0.1661738 0 0.06862699 0.1661738 0 0.06860488 0.1661738 0 0.06860303 0.1661518 0 0.06860101 0.1661302 0 0.06859886 0.1661089 0 0.06859648 0.1660877 0 0.06859397 0.1660667 0 0.06859117 0.1660459 0 0.06858819 0.1660252 0 0.06858503 0.1660047 0 0.06858158 0.1659843 0 0.06857782 0.165964 0 0.06857383 0.1659436 0 0.0685696 0.1659234 0 0.06856215 0.1659234 0 0.06854122 0.1659234 0 0.06850862 0.1659234 0 0.06846636 0.1659234 0 0.06841635 0.1659234 0 0.06836056 0.1659234 0 0.0683009 0.1659234 0 0.06823927 0.1659234 0 0.06817764 0.1659234 0 0.06811797 0.1659234 0 0.06806218 0.1659234 0 0.06801217 0.1659234 0 0.06801217 0.1657152 0 0.06851667 0.1657152 0 0.06849288 0.1656504 0 0.06846535 0.1655883 0 0.06843382 0.165529 0 0.06839787 0.1654724 0 0.06835728 0.1654186 0 0.06831163 0.1653678 0 0.06826061 0.1653199 0 0.06820386 0.165275 0 0.0681411 0.1652331 0 0.06807202 0.1651943 0 0.0679962 0.1651587 0 0.06791341 0.1651262 0 0.06792676 0.1651148 0 0.06794029 0.1651019 0 0.06795382 0.1650877 0 0.06796723 0.1650725 0 0.0679804 0.1650567 0 0.06799322 0.1650403 0 0.0680055 0.1650236 0 0.06801712 0.1650071 0 0.06802797 0.1649908 0 0.06803792 0.1649751 0 0.0680468 0.1649602 0 0.06805449 0.1649463 0 0.06815493 0.1649889 0 0.06824648 0.1650356 0 0.06832963 0.1650863 0 0.06840479 0.165141 0 0.06847244 0.1651995 0 0.068533 0.165262 0 0.06858682 0.1653283 0 0.06863439 0.1653983 0 0.06867611 0.1654721 0 0.06871247 0.1655495 0 0.06874382 0.1656306 0 0.06877064 0.1657152 0 0.06878095 0.1657152 0 0.06880933 0.1657152 0 0.06885224 0.1657152 0 0.06890606 0.1657152 0 0.0689671 0.1657152 0 0.06903171 0.1657152 0 0.06909638 0.1657152 0 0.06915742 0.1657152 0 0.06921124 0.1657152 0 0.06925415 0.1657152 0 0.06928253 0.1657152 0 0.06879538 0.1635108 0 0.0688076 0.1634702 0 0.06881958 0.1634279 0 0.0688312 0.1633844 0 0.06884229 0.1633402 0 0.06885272 0.1632956 0 0.06886237 0.1632511 0 0.0688712 0.1632071 0 0.068879 0.1631641 0 0.06888568 0.1631224 0 0.06889104 0.1630825 0 0.0688951 0.1630449 0 0.06889766 0.16301 0 0.06890082 0.1630105 0 0.0689097 0.1630121 0 0.06892353 0.1630146 0 0.06894141 0.1630178 0 0.06896263 0.1630216 0 0.06898629 0.1630258 0 0.06901162 0.1630303 0 0.06903773 0.163035 0 0.06906384 0.1630397 0 0.06908917 0.1630442 0 0.06911283 0.1630485 0 0.06913405 0.1630523 0 0.06912982 0.1630873 0 0.06912416 0.1631249 0 0.0691173 0.1631647 0 0.0691092 0.1632063 0 0.06910008 0.1632492 0 0.06908994 0.163293 0 0.06907892 0.1633372 0 0.06906712 0.1633815 0 0.06905466 0.1634253 0 0.0690416 0.1634682 0 0.06902801 0.1635098 0 0.06901407 0.1635496 0 0.06900978 0.1635488 0 0.06899791 0.1635468 0 0.06897991 0.1635435 0 0.06895738 0.1635395 0 0.06893181 0.163535 0 0.06890469 0.1635302 0 0.06887763 0.1635254 0 0.06885206 0.1635209 0 0.06882953 0.1635169 0 0.06881153 0.1635137 0 0.06879967 0.1635116 0 0.06937396 0.1635073 0 0.06939512 0.1634718 0 0.06941628 0.1634346 0 0.0694372 0.163396 0 0.0694577 0.1633564 0 0.06947749 0.1633162 0 0.06949651 0.1632758 0 0.06951451 0.1632357 0 0.06953126 0.1631961 0 0.06954658 0.1631576 0 0.06956028 0.1631205 0 0.06957215 0.1630853 0 0.0695821 0.1630523 0 0.06958496 0.1630533 0 0.06959301 0.163056 0 0.06960558 0.1630604 0 0.06962192 0.163066 0 0.06964123 0.1630727 0 0.06966274 0.16308 0 0.06968581 0.163088 0 0.06970959 0.1630962 0 0.06973338 0.1631044 0 0.06975644 0.1631123 0 0.06977796 0.1631197 0 0.06979727 0.1631264 0 0.06978642 0.1631576 0 0.06977349 0.1631911 0 0.06975859 0.1632266 0 0.06974202 0.1632635 0 0.06972396 0.1633017 0 0.06970465 0.1633406 0 0.06968432 0.16338 0 0.06966322 0.1634195 0 0.06964153 0.1634587 0 0.06961941 0.1634972 0 0.06959718 0.1635347 0 0.06957501 0.1635708 0 0.06957107 0.1635695 0 0.06956011 0.1635661 0 0.0695436 0.1635608 0 0.06952291 0.1635543 0 0.06949937 0.1635469 0 0.06947445 0.163539 0 0.0694496 0.1635311 0 0.06942605 0.1635237 0 0.06940537 0.1635172 0 0.06938886 0.1635119 0 0.06937789 0.1635085 0 0.06953269 0.1647911 0 0.06953269 0.1645866 0 0.06866484 0.1645866 0 0.06866484 0.1647911 0 0.06953269 0.1642268 0 0.06866484 0.1642268 0 0.06866484 0.1644243 0 0.06953269 0.1644243 0 0.06953269 0.16386 0 0.06866484 0.16386 0 0.06866484 0.1640645 0 0.06953269 0.1640645 0 0.06978666 0.16386 0 0.06978666 0.1640645 0 0.07063335 0.1640645 0 0.07063335 0.1642268 0 0.06978666 0.1642268 0 0.06978666 0.1644243 0 0.07062631 0.1644243 0 0.07062631 0.1645866 0 0.06978666 0.1645866 0 0.06978666 0.1647911 0 0.07076746 0.1647911 0 0.07076746 0.1649745 0 0.06840729 0.1649745 0 0.06840729 0.1636731 0 0.06857663 0.1636731 0 0.06857663 0.1636695 0 0.07073569 0.1636695 0 0.07072681 0.1635947 0 0.07071775 0.1635269 0 0.07070851 0.1634659 0 0.07069909 0.1634114 0 0.07068949 0.1633631 0 0.07067966 0.1633208 0 0.07066965 0.1632841 0 0.07065939 0.1632528 0 0.07064884 0.1632266 0 0.07063812 0.1632052 0 0.07062709 0.1631883 0 0.07061576 0.1631757 0 0.0706095 0.1631692 0 0.07060301 0.1631636 0 0.07059621 0.1631588 0 0.07058906 0.163155 0 0.07058149 0.1631518 0 0.07057338 0.1631492 0 0.07056468 0.1631473 0 0.07055538 0.163146 0 0.07054531 0.163145 0 0.0705344 0.1631444 0 0.0705226 0.1631441 0 0.07050991 0.163144 0 0.07049679 0.1631441 0 0.07048052 0.1631443 0 0.07046133 0.1631448 0 0.07043945 0.1631454 0 0.07041513 0.1631463 0 0.07038861 0.1631475 0 0.07036012 0.163149 0 0.07032984 0.1631508 0 0.07029807 0.1631529 0 0.07026499 0.1631554 0 0.0702309 0.1631583 0 0.07019591 0.1631616 0 0.07020443 0.1631461 0 0.07021236 0.1631298 0 0.07021969 0.1631127 0 0.07022637 0.1630951 0 0.07023239 0.1630771 0 0.07023781 0.1630589 0 0.07024252 0.1630406 0 0.07024663 0.1630223 0 0.07024997 0.1630043 0 0.07025265 0.1629868 0 0.07025468 0.1629698 0 0.07025587 0.1629535 0 0.07029366 0.1629511 0 0.07033085 0.1629491 0 0.07036733 0.1629475 0 0.07040292 0.1629464 0 0.07043725 0.1629455 0 0.07047021 0.1629452 0 0.07050156 0.1629451 0 0.07053107 0.1629454 0 0.07055854 0.1629461 0 0.0705837 0.1629471 0 0.07060635 0.1629484 0 0.07062631 0.16295 0 0.07064694 0.1629512 0 0.07066643 0.1629533 0 0.07068485 0.1629562 0 0.07070237 0.1629599 0 0.070719 0.1629646 0 0.07073479 0.1629703 0 0.07074987 0.1629769 0 0.0707643 0.1629847 0 0.07077813 0.1629936 0 0.07079142 0.1630037 0 0.07080429 0.163015 0 0.07081681 0.1630276 0 0.07083642 0.1630495 0 0.0708546 0.1630768 0 0.07087165 0.16311 0 0.0708875 0.1631496 0 0.07090246 0.1631962 0 0.07091647 0.1632502 0 0.07092982 0.1633123 0 0.07094252 0.1633829 0 0.07095474 0.1634626 0 0.0709666 0.1635518 0 0.07097822 0.1636512 0 0.07098966 0.1637612 0 0.07099139 0.1637699 0 0.07099294 0.1637796 0 0.07099431 0.1637901 0 0.07099556 0.163801 0 0.0709967 0.1638119 0 0.07099765 0.1638225 0 0.07099843 0.1638325 0 0.07099908 0.1638414 0 0.07099962 0.163849 0 0.07099997 0.1638549 0 0.07100021 0.1638587 0 0.07100027 0.16386 0 0.07098412 0.16386 0 0.07093846 0.16386 0 0.07086753 0.16386 0 0.07077556 0.16386 0 0.07066667 0.16386 0 0.07054519 0.16386 0 0.07041525 0.16386 0 0.07028114 0.16386 0 0.07014697 0.16386 0 0.07001703 0.16386 0 0.06989556 0.16386 0 0.0703864 0.1632886 0 0.07037281 0.163314 0 0.07035678 0.1633406 0 0.0703386 0.1633682 0 0.07031846 0.1633965 0 0.0702967 0.1634253 0 0.07027351 0.1634544 0 0.07024919 0.1634835 0 0.07022386 0.1635122 0 0.07019788 0.1635406 0 0.07017147 0.1635682 0 0.07014489 0.1635948 0 0.0701183 0.1636201 0 0.07011592 0.1636191 0 0.07010912 0.163616 0 0.07009863 0.1636113 0 0.07008498 0.1636051 0 0.07006883 0.1635978 0 0.07005083 0.1635897 0 0.07003158 0.163581 0 0.07001167 0.1635721 0 0.06999182 0.1635631 0 0.06997257 0.1635544 0 0.06995451 0.1635463 0 0.06993842 0.163539 0 0.06996333 0.1635119 0 0.0699886 0.1634835 0 0.07001388 0.1634542 0 0.07003885 0.1634243 0 0.07006335 0.163394 0 0.07008701 0.1633635 0 0.07010954 0.1633332 0 0.0701307 0.1633033 0 0.07015025 0.1632741 0 0.07016777 0.1632459 0 0.07018309 0.1632189 0 0.07019591 0.1631934 0 0.07019966 0.1631953 0 0.07021003 0.1632004 0 0.07022571 0.1632083 0 0.07024532 0.163218 0 0.07026755 0.1632292 0 0.07029116 0.163241 0 0.07031476 0.1632528 0 0.07033705 0.1632639 0 0.07035666 0.1632737 0 0.07037234 0.1632815 0 0.07038271 0.1632867 0</float_array>
          <technique_common>
            <accessor source="#CUpath3487-mesh-positions-array" count="542" stride="3">
              <param name="X" type="float"/>
              <param name="Y" type="float"/>
              <param name="Z" type="float"/>
            </accessor>
          </technique_common>
        </source>
        <source id="CUpath3487-mesh-normals">
          <float_array id="CUpath3487-mesh-normals-array" count="6">0 0 1 0 0 -1</float_array>
          <technique_common>
            <accessor source="#CUpath3487-mesh-normals-array" count="2" stride="3">
              <param name="X" type="float"/>
              <param name="Y" type="float"/>
              <param name="Z" type="float"/>
            </accessor>
          </technique_common>
        </source>
        <vertices id="CUpath3487-mesh-vertices">
          <input semantic="POSITION" source="#CUpath3487-mesh-positions"/>
        </vertices>
        <triangles material="SVGMat_009-material" count="536">
          <input semantic="VERTEX" source="#CUpath3487-mesh-vertices" offset="0"/>
          <input semantic="NORMAL" source="#CUpath3487-mesh-normals" offset="1"/>
          <p>189 0 187 0 188 0 189 0 186 0 187 0 189 0 185 0 186 0 189 0 184 0 185 0 189 0 183 0 184 0 189 0 182 0 183 0 189 0 181 0 182 0 189 0 180 0 181 0 189 0 179 0 180 0 189 0 178 0 179 0 189 0 177 0 178 0 189 0 176 0 177 0 189 0 175 0 176 0 190 0 175 0 189 0 190 0 174 0 175 0 191 0 174 0 190 0 191 0 173 0 174 0 192 0 173 0 191 0 192 0 172 0 173 0 193 0 172 0 192 0 193 0 171 0 172 0 194 0 171 0 193 0 194 0 170 0 171 0 195 0 170 0 194 0 195 0 169 0 170 0 196 0 169 0 195 0 196 0 168 0 169 0 197 0 168 0 196 0 197 0 167 0 168 0 54 0 50 0 53 0 50 0 52 0 53 0 50 0 51 0 52 0 51 0 55 0 52 0 198 0 167 0 197 0 198 0 166 0 167 0 199 0 166 0 198 0 199 0 165 0 166 0 200 0 165 0 199 0 200 0 164 0 165 0 213 0 211 0 212 0 213 0 210 0 211 0 213 0 209 0 210 0 213 0 208 0 209 0 213 0 207 0 208 0 213 0 206 0 207 0 213 0 205 0 206 0 213 0 204 0 205 0 213 0 203 0 204 0 213 0 202 0 203 0 213 0 201 0 202 0 213 0 200 0 201 0 213 0 164 0 200 0 213 0 163 0 164 0 213 0 162 0 163 0 213 0 161 0 162 0 213 0 160 0 161 0 213 0 159 0 160 0 213 0 158 0 159 0 213 0 157 0 158 0 213 0 156 0 157 0 213 0 155 0 156 0 213 0 154 0 155 0 213 0 153 0 154 0 213 0 152 0 153 0 213 0 151 0 152 0 213 0 150 0 151 0 213 0 149 0 150 0 213 0 148 0 149 0 213 0 147 0 148 0 213 0 146 0 147 0 213 0 145 0 146 0 213 0 144 0 145 0 213 0 143 0 144 0 213 0 142 0 143 0 213 0 141 0 142 0 213 0 140 0 141 0 213 0 139 0 140 0 54 0 49 0 50 0 48 0 55 0 51 0 213 0 214 0 139 0 214 0 250 0 139 0 250 0 251 0 139 0 251 0 253 0 139 0 253 0 254 0 139 0 254 0 255 0 139 0 255 0 256 0 139 0 256 0 257 0 139 0 257 0 258 0 139 0 258 0 259 0 139 0 259 0 260 0 139 0 260 0 56 0 139 0 56 0 138 0 139 0 215 0 250 0 214 0 215 0 249 0 250 0 252 0 253 0 251 0 261 0 56 0 260 0 57 0 138 0 56 0 58 0 138 0 57 0 216 0 249 0 215 0 58 0 137 0 138 0 216 0 248 0 249 0 59 0 137 0 58 0 217 0 248 0 216 0 59 0 136 0 137 0 60 0 136 0 59 0 217 0 247 0 248 0 218 0 247 0 217 0 61 0 136 0 60 0 61 0 135 0 136 0 62 0 135 0 61 0 219 0 247 0 218 0 219 0 246 0 247 0 63 0 135 0 62 0 63 0 134 0 135 0 220 0 246 0 219 0 64 0 134 0 63 0 220 0 245 0 246 0 65 0 134 0 64 0 65 0 133 0 134 0 66 0 133 0 65 0 221 0 245 0 220 0 54 0 48 0 49 0 54 0 55 0 48 0 67 0 133 0 66 0 68 0 133 0 67 0 68 0 132 0 133 0 221 0 244 0 245 0 69 0 132 0 68 0 70 0 132 0 69 0 222 0 244 0 221 0 71 0 132 0 70 0 93 0 91 0 92 0 72 0 132 0 71 0 93 0 90 0 91 0 73 0 132 0 72 0 93 0 89 0 90 0 93 0 88 0 89 0 74 0 132 0 73 0 93 0 87 0 88 0 75 0 132 0 74 0 93 0 86 0 87 0 76 0 132 0 75 0 93 0 85 0 86 0 93 0 84 0 85 0 77 0 132 0 76 0 93 0 83 0 84 0 78 0 132 0 77 0 93 0 82 0 83 0 79 0 132 0 78 0 93 0 81 0 82 0 80 0 132 0 79 0 93 0 80 0 81 0 93 0 132 0 80 0 94 0 132 0 93 0 94 0 131 0 132 0 95 0 131 0 94 0 223 0 244 0 222 0 96 0 131 0 95 0 223 0 243 0 244 0 96 0 130 0 131 0 97 0 130 0 96 0 224 0 243 0 223 0 98 0 130 0 97 0 98 0 129 0 130 0 99 0 129 0 98 0 99 0 128 0 129 0 224 0 242 0 243 0 100 0 128 0 99 0 225 0 242 0 224 0 100 0 127 0 128 0 101 0 127 0 100 0 101 0 126 0 127 0 102 0 126 0 101 0 102 0 125 0 126 0 226 0 242 0 225 0 102 0 124 0 125 0 103 0 124 0 102 0 103 0 123 0 124 0 226 0 241 0 242 0 103 0 122 0 123 0 103 0 121 0 122 0 104 0 121 0 103 0 227 0 241 0 226 0 104 0 120 0 121 0 104 0 119 0 120 0 104 0 118 0 119 0 228 0 241 0 227 0 104 0 117 0 118 0 105 0 117 0 104 0 105 0 116 0 117 0 106 0 116 0 105 0 107 0 116 0 106 0 107 0 115 0 116 0 108 0 115 0 107 0 108 0 114 0 115 0 109 0 114 0 108 0 109 0 113 0 114 0 110 0 113 0 109 0 110 0 112 0 113 0 111 0 112 0 110 0 229 0 241 0 228 0 230 0 241 0 229 0 230 0 240 0 241 0 231 0 240 0 230 0 232 0 240 0 231 0 233 0 240 0 232 0 233 0 239 0 240 0 234 0 239 0 233 0 235 0 239 0 234 0 236 0 239 0 235 0 236 0 237 0 239 0 237 0 238 0 239 0 383 0 361 0 382 0 361 0 381 0 382 0 361 0 380 0 381 0 383 0 360 0 361 0 358 0 380 0 361 0 359 0 379 0 358 0 379 0 380 0 358 0 359 0 378 0 379 0 383 0 364 0 360 0 364 0 359 0 360 0 364 0 378 0 359 0 364 0 377 0 378 0 364 0 376 0 377 0 383 0 363 0 364 0 365 0 376 0 364 0 362 0 375 0 365 0 375 0 376 0 365 0 362 0 374 0 375 0 383 0 368 0 363 0 368 0 362 0 363 0 368 0 374 0 362 0 368 0 373 0 374 0 368 0 372 0 373 0 383 0 367 0 368 0 369 0 372 0 368 0 366 0 371 0 369 0 371 0 372 0 369 0 366 0 370 0 371 0 383 0 366 0 367 0 383 0 370 0 366 0 383 0 493 0 370 0 383 0 492 0 493 0 383 0 491 0 492 0 383 0 490 0 491 0 383 0 489 0 490 0 383 0 488 0 489 0 383 0 487 0 488 0 383 0 486 0 487 0 383 0 485 0 486 0 383 0 484 0 485 0 383 0 483 0 484 0 383 0 482 0 483 0 383 0 481 0 482 0 383 0 480 0 481 0 383 0 479 0 480 0 383 0 478 0 479 0 383 0 477 0 478 0 383 0 476 0 477 0 383 0 475 0 476 0 383 0 474 0 475 0 383 0 473 0 474 0 383 0 472 0 473 0 383 0 471 0 472 0 383 0 470 0 471 0 383 0 384 0 470 0 384 0 386 0 470 0 386 0 469 0 470 0 385 0 386 0 384 0 387 0 469 0 386 0 387 0 468 0 469 0 507 0 505 0 506 0 508 0 505 0 507 0 509 0 505 0 508 0 510 0 505 0 509 0 511 0 505 0 510 0 512 0 505 0 511 0 512 0 504 0 505 0 388 0 468 0 387 0 513 0 504 0 512 0 514 0 504 0 513 0 515 0 504 0 514 0 347 0 345 0 346 0 348 0 345 0 347 0 515 0 503 0 504 0 349 0 345 0 348 0 516 0 503 0 515 0 350 0 345 0 349 0 517 0 503 0 516 0 351 0 345 0 350 0 388 0 467 0 468 0 299 0 297 0 298 0 300 0 297 0 299 0 352 0 345 0 351 0 301 0 297 0 300 0 518 0 503 0 517 0 302 0 297 0 301 0 518 0 502 0 503 0 303 0 297 0 302 0 519 0 502 0 518 0 353 0 345 0 352 0 304 0 297 0 303 0 353 0 344 0 345 0 354 0 344 0 353 0 305 0 297 0 304 0 389 0 467 0 388 0 306 0 297 0 305 0 355 0 344 0 354 0 307 0 297 0 306 0 356 0 344 0 355 0 308 0 297 0 307 0 309 0 297 0 308 0 519 0 501 0 502 0 357 0 344 0 356 0 520 0 501 0 519 0 262 0 297 0 309 0 263 0 297 0 262 0 263 0 296 0 297 0 310 0 344 0 357 0 311 0 344 0 310 0 311 0 343 0 344 0 521 0 501 0 520 0 521 0 500 0 501 0 312 0 343 0 311 0 264 0 296 0 263 0 264 0 295 0 296 0 390 0 467 0 389 0 390 0 466 0 467 0 312 0 342 0 343 0 521 0 499 0 500 0 522 0 499 0 521 0 313 0 342 0 312 0 265 0 295 0 264 0 522 0 498 0 499 0 265 0 294 0 295 0 523 0 498 0 522 0 313 0 341 0 342 0 391 0 466 0 390 0 523 0 497 0 498 0 314 0 341 0 313 0 524 0 497 0 523 0 266 0 294 0 265 0 391 0 465 0 466 0 266 0 293 0 294 0 314 0 340 0 341 0 524 0 496 0 497 0 525 0 496 0 524 0 392 0 465 0 391 0 315 0 340 0 314 0 315 0 339 0 340 0 525 0 495 0 496 0 267 0 293 0 266 0 267 0 292 0 293 0 526 0 495 0 525 0 393 0 465 0 392 0 316 0 339 0 315 0 526 0 494 0 495 0 393 0 464 0 465 0 527 0 494 0 526 0 316 0 338 0 339 0 268 0 292 0 267 0 268 0 291 0 292 0 527 0 541 0 494 0 527 0 540 0 541 0 394 0 464 0 393 0 527 0 539 0 540 0 317 0 338 0 316 0 528 0 539 0 527 0 528 0 538 0 539 0 528 0 537 0 538 0 317 0 337 0 338 0 395 0 464 0 394 0 528 0 536 0 537 0 269 0 291 0 268 0 395 0 463 0 464 0 269 0 290 0 291 0 529 0 536 0 528 0 529 0 535 0 536 0 318 0 337 0 317 0 529 0 534 0 535 0 396 0 463 0 395 0 318 0 336 0 337 0 530 0 531 0 529 0 531 0 532 0 529 0 532 0 533 0 529 0 533 0 534 0 529 0 270 0 290 0 269 0 270 0 289 0 290 0 397 0 463 0 396 0 397 0 462 0 463 0 319 0 336 0 318 0 319 0 335 0 336 0 398 0 462 0 397 0 399 0 462 0 398 0 400 0 462 0 399 0 270 0 288 0 289 0 271 0 288 0 270 0 401 0 462 0 400 0 423 0 421 0 422 0 402 0 462 0 401 0 423 0 420 0 421 0 320 0 335 0 319 0 320 0 334 0 335 0 423 0 419 0 420 0 403 0 462 0 402 0 423 0 418 0 419 0 404 0 462 0 403 0 423 0 417 0 418 0 404 0 461 0 462 0 405 0 461 0 404 0 423 0 416 0 417 0 423 0 415 0 416 0 406 0 461 0 405 0 423 0 414 0 415 0 424 0 414 0 423 0 407 0 461 0 406 0 424 0 413 0 414 0 408 0 461 0 407 0 424 0 412 0 413 0 409 0 461 0 408 0 424 0 411 0 412 0 410 0 461 0 409 0 424 0 410 0 411 0 424 0 461 0 410 0 425 0 461 0 424 0 320 0 333 0 334 0 271 0 287 0 288 0 272 0 287 0 271 0 321 0 333 0 320 0 321 0 332 0 333 0 426 0 461 0 425 0 321 0 331 0 332 0 426 0 460 0 461 0 321 0 330 0 331 0 321 0 329 0 330 0 427 0 460 0 426 0 321 0 328 0 329 0 272 0 286 0 287 0 322 0 325 0 321 0 325 0 328 0 321 0 273 0 286 0 272 0 325 0 326 0 328 0 326 1 327 1 328 1 428 0 460 0 427 0 428 0 459 0 460 0 322 0 324 0 325 0 429 0 459 0 428 0 322 0 323 0 324 0 273 0 285 0 286 0 429 0 458 0 459 0 273 0 284 0 285 0 274 0 275 0 273 0 275 0 276 0 273 0 276 0 277 0 273 0 277 0 279 0 273 0 279 0 284 0 273 0 279 0 283 0 284 0 430 0 458 0 429 0 279 0 282 0 283 0 279 1 281 1 282 1 279 0 280 0 281 0 430 0 457 0 458 0 431 0 457 0 430 0 277 0 278 0 279 0 431 0 456 0 457 0 432 0 456 0 431 0 432 0 455 0 456 0 432 0 454 0 455 0 433 0 454 0 432 0 433 0 453 0 454 0 433 0 452 0 453 0 433 0 451 0 452 0 434 0 451 0 433 0 434 0 450 0 451 0 434 0 449 0 450 0 434 0 448 0 449 0 435 0 448 0 434 0 435 0 447 0 448 0 435 0 446 0 447 0 436 0 446 0 435 0 436 0 445 0 446 0 437 0 445 0 436 0 437 0 444 0 445 0 438 0 444 0 437 0 438 0 443 0 444 0 439 0 443 0 438 0 439 0 442 0 443 0 440 0 442 0 439 0 440 0 441 0 442 0 25 0 23 0 24 0 25 0 22 0 23 0 25 0 21 0 22 0 25 0 20 0 21 0 26 0 20 0 25 0 26 0 19 0 20 0 26 0 18 0 19 0 26 0 17 0 18 0 26 0 16 0 17 0 27 0 16 0 26 0 27 0 15 0 16 0 27 0 14 0 15 0 27 0 13 0 14 0 27 0 12 0 13 0 27 0 11 0 12 0 28 0 11 0 27 0 28 0 10 0 11 0 29 0 10 0 28 0 29 0 9 0 10 0 30 0 9 0 29 0 30 0 8 0 9 0 31 0 8 0 30 0 31 0 7 0 8 0 32 0 7 0 31 0 32 0 6 0 7 0 33 0 6 0 32 0 33 0 5 0 6 0 34 0 5 0 33 0 34 0 4 0 5 0 35 0 4 0 34 0 35 0 3 0 4 0 36 0 3 0 35 0 37 0 3 0 36 0 37 0 2 0 3 0 38 0 2 0 37 0 39 0 2 0 38 0 40 0 2 0 39 0 41 0 2 0 40 0 41 0 1 0 2 0 42 0 1 0 41 0 43 0 1 0 42 0 44 0 1 0 43 0 44 0 45 0 1 0 45 0 0 0 1 0 46 0 47 0 45 0 47 0 0 0 45 0</p>
        </triangles>
      </mesh>
    </geometry>
    <geometry id="CUpath3489-mesh" name="CUpath3489">
      <mesh>
        <source id="CUpath3489-mesh-positions">
          <float_array id="CUpath3489-mesh-positions-array" count="132">0.07210451 0.1642091 0 0.07210451 0.1645725 0 0.07291239 0.1645725 0 0.07291239 0.1642091 0 0.07210451 0.1651403 0 0.07291239 0.1651403 0 0.07291239 0.1647806 0 0.07210451 0.1647806 0 0.07400244 0.1651403 0 0.07400244 0.1647806 0 0.07317698 0.1647806 0 0.07317698 0.1651403 0 0.07400244 0.1642091 0 0.07317698 0.1642091 0 0.07317698 0.1645725 0 0.07400244 0.1645725 0 0.07463395 0.1637048 0 0.07317698 0.1637048 0 0.07317698 0.163994 0 0.07426351 0.163994 0 0.07426351 0.165359 0 0.07317698 0.165359 0 0.07317698 0.1656165 0 0.07451403 0.1656165 0 0.07451403 0.1658563 0 0.07317698 0.1658563 0 0.07317698 0.1661738 0 0.07291239 0.1661738 0 0.07291239 0.1658563 0 0.07159292 0.1658563 0 0.07159292 0.1656165 0 0.07291239 0.1656165 0 0.07291239 0.165359 0 0.07185399 0.165359 0 0.07185399 0.163994 0 0.07291239 0.163994 0 0.07291239 0.1637048 0 0.07148712 0.1637048 0 0.07148712 0.1634685 0 0.07291239 0.1634685 0 0.07291239 0.1629465 0 0.07317698 0.1629465 0 0.07317698 0.1634685 0 0.07463395 0.1634685 0</float_array>
          <technique_common>
            <accessor source="#CUpath3489-mesh-positions-array" count="44" stride="3">
              <param name="X" type="float"/>
              <param name="Y" type="float"/>
              <param name="Z" type="float"/>
            </accessor>
          </technique_common>
        </source>
        <source id="CUpath3489-mesh-normals">
          <float_array id="CUpath3489-mesh-normals-array" count="3">0 0 1</float_array>
          <technique_common>
            <accessor source="#CUpath3489-mesh-normals-array" count="1" stride="3">
              <param name="X" type="float"/>
              <param name="Y" type="float"/>
              <param name="Z" type="float"/>
            </accessor>
          </technique_common>
        </source>
        <vertices id="CUpath3489-mesh-vertices">
          <input semantic="POSITION" source="#CUpath3489-mesh-positions"/>
        </vertices>
        <triangles material="SVGMat_009-material" count="50">
          <input semantic="VERTEX" source="#CUpath3489-mesh-vertices" offset="0"/>
          <input semantic="NORMAL" source="#CUpath3489-mesh-normals" offset="1"/>
          <p>28 0 26 0 27 0 28 0 25 0 26 0 30 0 28 0 29 0 30 0 25 0 28 0 30 0 24 0 25 0 30 0 23 0 24 0 31 0 23 0 30 0 32 0 22 0 31 0 22 0 23 0 31 0 32 0 21 0 22 0 34 0 4 0 33 0 4 0 32 0 33 0 4 0 21 0 32 0 4 0 20 0 21 0 4 0 11 0 20 0 11 0 8 0 20 0 8 0 19 0 20 0 34 0 7 0 4 0 5 0 11 0 4 0 6 0 11 0 5 0 6 0 10 0 11 0 9 0 19 0 8 0 34 0 1 0 7 0 1 0 6 0 7 0 1 0 10 0 6 0 1 0 9 0 10 0 1 0 14 0 9 0 14 0 15 0 9 0 15 0 19 0 9 0 34 0 0 0 1 0 2 0 14 0 1 0 3 0 14 0 2 0 3 0 13 0 14 0 12 0 19 0 15 0 34 0 3 0 0 0 34 0 13 0 3 0 34 0 12 0 13 0 34 0 19 0 12 0 35 0 19 0 34 0 36 0 18 0 35 0 18 0 19 0 35 0 36 0 17 0 18 0 38 0 36 0 37 0 38 0 17 0 36 0 38 0 16 0 17 0 38 0 43 0 16 0 39 0 43 0 38 0 40 0 42 0 39 0 42 0 43 0 39 0 40 0 41 0 42 0</p>
        </triangles>
      </mesh>
    </geometry>
    <geometry id="CUpath3491-mesh" name="CUpath3491">
      <mesh>
        <source id="CUpath3491-mesh-positions">
          <float_array id="CUpath3491-mesh-positions-array" count="762">0.06022137 0.1565017 0 0.06015944 0.1566072 0 0.06008744 0.1567199 0 0.06000632 0.1568383 0 0.05991739 0.1569611 0 0.05982172 0.1570868 0 0.05972039 0.1572141 0 0.05961465 0.1573417 0 0.05950558 0.1574681 0 0.05939424 0.1575921 0 0.05928188 0.1577121 0 0.05916965 0.1578269 0 0.0590586 0.1579351 0 0.05905079 0.157931 0 0.05902868 0.1579195 0 0.05899435 0.1579018 0 0.05894988 0.1578786 0 0.05889719 0.1578513 0 0.05883842 0.1578208 0 0.0587756 0.1577882 0 0.05871069 0.1577546 0 0.05864584 0.1577209 0 0.05858296 0.1576882 0 0.05852419 0.1576578 0 0.05847156 0.1576303 0 0.0585798 0.1575165 0 0.05868929 0.1573961 0 0.0587989 0.1572706 0 0.05890762 0.1571412 0 0.05901432 0.1570096 0 0.05911785 0.1568769 0 0.05921715 0.1567448 0 0.05931115 0.1566146 0 0.05939865 0.1564875 0 0.0594787 0.1563653 0 0.0595501 0.1562491 0 0.05961173 0.1561405 0 0.05962377 0.1561476 0 0.05965691 0.1561672 0 0.05970698 0.1561969 0 0.0597698 0.1562342 0 0.05984103 0.1562764 0 0.05991655 0.1563211 0 0.05999207 0.1563658 0 0.0600633 0.156408 0 0.06012612 0.1564452 0 0.06017619 0.1564749 0 0.06020939 0.1564946 0 0.05606698 0.1496619 0 0.05606698 0.1527206 0 0.05721849 0.1527206 0 0.05721849 0.1534429 0 0.05410265 0.1534429 0 0.05410265 0.1527206 0 0.05529928 0.1527206 0 0.05529928 0.1495039 0 0.05516761 0.1494761 0 0.05503797 0.1494493 0 0.05491054 0.1494233 0 0.05478543 0.1493981 0 0.05466288 0.1493737 0 0.05454295 0.1493501 0 0.05442583 0.1493272 0 0.05431169 0.1493049 0 0.0542007 0.1492833 0 0.05409306 0.1492622 0 0.05398881 0.1492417 0 0.05388814 0.1492217 0 0.0538907 0.1492115 0 0.05389791 0.1491826 0 0.05390918 0.1491377 0 0.05392372 0.1490796 0 0.05394095 0.1490107 0 0.05396014 0.1489339 0 0.0539807 0.1488517 0 0.05400192 0.1487669 0 0.05402308 0.1486821 0 0.05404365 0.1485999 0 0.05406284 0.148523 0 0.05408006 0.1484542 0 0.05432891 0.1485118 0 0.05458921 0.1485716 0 0.05485957 0.1486334 0 0.05513876 0.1486971 0 0.05542546 0.1487625 0 0.05571842 0.1488295 0 0.05601632 0.1488979 0 0.05631786 0.1489675 0 0.05662173 0.1490383 0 0.05692666 0.14911 0 0.05723136 0.1491824 0 0.05753457 0.1492556 0 0.05753397 0.1492649 0 0.05753225 0.1492912 0 0.05752962 0.1493321 0 0.05752617 0.1493852 0 0.05752217 0.1494479 0 0.05751764 0.149518 0 0.05751281 0.1495929 0 0.05750781 0.1496703 0 0.0575028 0.1497476 0 0.05749797 0.1498225 0 0.05749344 0.1498926 0 0.05748939 0.1499553 0 0.06008589 0.1550231 0 0.06008589 0.1557793 0 0.05832481 0.1557793 0 0.05832219 0.1559578 0 0.0583201 0.1561377 0 0.05831843 0.156319 0 0.05831724 0.1565017 0 0.05831658 0.1566858 0 0.05831634 0.1568713 0 0.05831658 0.1570582 0 0.05831724 0.1572466 0 0.05831843 0.1574363 0 0.0583201 0.1576275 0 0.05832219 0.1578201 0 0.05832481 0.1580141 0 0.05831396 0.1580141 0 0.05828338 0.1580141 0 0.05823588 0.1580141 0 0.05817425 0.1580141 0 0.05810135 0.1580141 0 0.05801999 0.1580141 0 0.05793297 0.1580141 0 0.05784314 0.1580141 0 0.05775326 0.1580141 0 0.05766624 0.1580141 0 0.05758488 0.1580141 0 0.05751198 0.1580141 0 0.0575146 0.1578201 0 0.05751681 0.1576275 0 0.05751866 0.1574363 0 0.05752032 0.1572466 0 0.05752182 0.1570582 0 0.05752325 0.1568713 0 0.05752468 0.1566858 0 0.05752617 0.1565017 0 0.05752784 0.156319 0 0.05752974 0.1561377 0 0.05753195 0.1559578 0 0.05753457 0.1557793 0 0.05748766 0.1557793 0 0.05735516 0.1557793 0 0.05714929 0.1557793 0 0.05688232 0.1557793 0 0.05656635 0.1557793 0 0.05621373 0.1557793 0 0.05583661 0.1557793 0 0.05544734 0.1557793 0 0.055058 0.1557793 0 0.05468094 0.1557793 0 0.05432826 0.1557793 0 0.05401235 0.1557793 0 0.05401235 0.1550231 0 0.0575571 0.1550231 0 0.05758792 0.1539459 0 0.05763137 0.1529403 0 0.05769032 0.1520106 0 0.05776745 0.1511605 0 0.05786561 0.1503942 0 0.05798751 0.1497155 0 0.05813604 0.1491285 0 0.0583139 0.1486373 0 0.05852395 0.1482458 0 0.05876886 0.1479579 0 0.05905151 0.1477777 0 0.05937469 0.1477093 0 0.05946838 0.1477159 0 0.05956268 0.1477431 0 0.05965673 0.1477936 0 0.05974972 0.1478702 0 0.05984085 0.1479757 0 0.05992925 0.1481128 0 0.06001412 0.1482842 0 0.06009465 0.1484926 0 0.06017005 0.148741 0 0.06023937 0.1490318 0 0.06030195 0.149368 0 0.06035685 0.1497522 0 0.06032133 0.1497747 0 0.06027793 0.1498022 0 0.06022804 0.1498342 0 0.06017327 0.14987 0 0.06011503 0.1499093 0 0.06005483 0.1499511 0 0.05999416 0.1499951 0 0.05993455 0.1500406 0 0.05987739 0.1500871 0 0.05982428 0.1501339 0 0.0597766 0.1501805 0 0.05973595 0.1502262 0 0.05972301 0.1500049 0 0.05970686 0.1497985 0 0.05968761 0.1496079 0 0.05966526 0.149434 0 0.05963999 0.1492778 0 0.05961173 0.1491399 0 0.05958074 0.1490213 0 0.05954694 0.1489228 0 0.05951052 0.1488454 0 0.05947148 0.1487898 0 0.05942994 0.1487569 0 0.05938595 0.1487477 0 0.05922669 0.1488091 0 0.05908161 0.148968 0 0.05895048 0.1492203 0 0.05883282 0.149562 0 0.05872833 0.149989 0 0.05863666 0.1504971 0 0.05855745 0.1510824 0 0.05849039 0.1517407 0 0.05843502 0.152468 0 0.05839109 0.1532602 0 0.05835825 0.1541133 0 0.05833607 0.1550231 0 0.05835938 0.1550231 0 0.05842518 0.1550231 0 0.05852746 0.1550231 0 0.05866014 0.1550231 0 0.05881708 0.1550231 0 0.05899226 0.1550231 0 0.0591796 0.1550231 0 0.05937302 0.1550231 0 0.05956643 0.1550231 0 0.05975377 0.1550231 0 0.05992895 0.1550231 0 0.04985797 0.1554633 0 0.05383175 0.1554633 0 0.05383175 0.1561518 0 0.04985797 0.1561518 0 0.052827 0.1509373 0 0.052827 0.1490411 0 0.05105459 0.1490411 0 0.05105459 0.1509373 0 0.05354952 0.1516258 0 0.05034339 0.1516258 0 0.05034339 0.1478447 0 0.05105459 0.1478447 0 0.05105459 0.1483639 0 0.05354952 0.1483639 0 0.05035465 0.152461 0 0.05356079 0.152461 0 0.05356079 0.1531382 0 0.05035465 0.1531382 0 0.05035465 0.1539621 0 0.05356079 0.1539621 0 0.05356079 0.154628 0 0.05035465 0.154628 0 0.05350434 0.1576303 0 0.0504111 0.1576303 0 0.0504111 0.1569531 0 0.05350434 0.1569531 0</float_array>
          <technique_common>
            <accessor source="#CUpath3491-mesh-positions-array" count="254" stride="3">
              <param name="X" type="float"/>
              <param name="Y" type="float"/>
              <param name="Z" type="float"/>
            </accessor>
          </technique_common>
        </source>
        <source id="CUpath3491-mesh-normals">
          <float_array id="CUpath3491-mesh-normals-array" count="6">0 0 1 0 0 -1</float_array>
          <technique_common>
            <accessor source="#CUpath3491-mesh-normals-array" count="2" stride="3">
              <param name="X" type="float"/>
              <param name="Y" type="float"/>
              <param name="Z" type="float"/>
            </accessor>
          </technique_common>
        </source>
        <vertices id="CUpath3491-mesh-vertices">
          <input semantic="POSITION" source="#CUpath3491-mesh-positions"/>
        </vertices>
        <triangles material="SVGMat_009-material" count="240">
          <input semantic="VERTEX" source="#CUpath3491-mesh-vertices" offset="0"/>
          <input semantic="NORMAL" source="#CUpath3491-mesh-normals" offset="1"/>
          <p>228 0 230 0 231 0 228 0 229 0 230 0 238 0 235 0 237 0 235 0 236 0 237 0 235 0 232 0 236 0 232 0 241 0 236 0 238 0 234 0 235 0 233 0 241 0 232 0 238 0 240 0 234 0 240 0 233 0 234 0 240 0 241 0 233 0 238 0 239 0 240 0 242 0 244 0 245 0 242 0 243 0 244 0 246 0 248 0 249 0 246 0 247 0 248 0 252 0 250 0 251 0 252 0 253 0 250 0 131 0 129 0 130 0 131 0 128 0 129 0 131 0 127 0 128 0 131 0 126 0 127 0 131 0 125 0 126 0 131 0 124 0 125 0 131 0 123 0 124 0 131 0 122 0 123 0 131 0 121 0 122 0 131 0 120 0 121 0 131 0 119 0 120 0 131 0 118 0 119 0 131 0 117 0 118 0 13 0 11 0 12 0 14 0 11 0 13 0 15 0 11 0 14 0 16 0 11 0 15 0 17 0 11 0 16 0 18 0 11 0 17 0 18 0 10 0 11 0 19 0 10 0 18 0 132 0 117 0 131 0 132 0 116 0 117 0 20 0 10 0 19 0 21 0 10 0 20 0 22 0 10 0 21 0 22 0 9 0 10 0 23 0 9 0 22 0 24 0 9 0 23 0 25 0 9 0 24 0 133 0 116 0 132 0 133 0 115 0 116 0 25 0 8 0 9 0 26 0 8 0 25 0 26 0 7 0 8 0 134 0 115 0 133 0 134 0 114 0 115 0 27 0 7 0 26 0 27 0 6 0 7 0 28 0 6 0 27 0 135 0 114 0 134 0 135 0 113 0 114 0 28 0 5 0 6 0 29 0 5 0 28 0 29 0 4 0 5 0 136 0 113 0 135 0 136 0 112 0 113 0 30 0 4 0 29 0 30 0 3 0 4 0 31 0 3 0 30 0 137 0 112 0 136 0 137 0 111 0 112 0 31 0 2 0 3 0 32 0 2 0 31 0 32 0 1 0 2 0 138 0 111 0 137 0 138 0 110 0 111 0 33 0 1 0 32 0 33 0 0 0 1 0 139 0 110 0 138 0 139 0 109 0 110 0 33 0 47 0 0 0 33 0 46 0 47 0 34 0 46 0 33 0 34 0 45 0 46 0 34 0 44 0 45 0 34 0 43 0 44 0 34 0 42 0 43 0 35 0 42 0 34 0 35 0 41 0 42 0 140 0 109 0 139 0 140 0 108 0 109 0 35 0 40 0 41 0 36 0 38 0 35 0 38 0 39 0 35 0 39 0 40 0 35 0 36 0 37 0 38 0 141 0 108 0 140 0 141 0 107 0 108 0 142 0 107 0 141 0 142 0 106 0 107 0 155 0 153 0 154 0 155 0 152 0 153 0 155 0 151 0 152 0 155 0 150 0 151 0 155 0 149 0 150 0 155 0 148 0 149 0 155 0 147 0 148 0 155 0 146 0 147 0 155 0 145 0 146 0 155 0 144 0 145 0 155 0 143 0 144 0 155 0 142 0 143 0 155 0 106 0 142 0 155 0 105 0 106 0 155 0 104 0 105 0 156 1 104 1 155 1 157 0 216 0 156 0 216 0 104 0 156 0 157 0 215 0 216 0 217 0 104 0 216 0 218 0 104 0 217 0 219 1 104 1 218 1 220 0 104 0 219 0 221 0 104 0 220 0 222 0 104 0 221 0 223 0 104 0 222 0 224 0 104 0 223 0 225 0 104 0 224 0 226 0 104 0 225 0 227 0 104 0 226 0 157 0 214 0 215 0 158 0 214 0 157 0 53 0 51 0 52 0 53 0 50 0 51 0 158 0 213 0 214 0 159 0 213 0 158 0 54 1 50 1 53 1 55 0 49 0 54 0 49 0 50 0 54 0 55 0 48 0 49 0 159 0 212 0 213 0 160 0 212 0 159 0 160 0 211 0 212 0 161 0 211 0 160 0 161 0 210 0 211 0 161 0 209 0 210 0 162 0 209 0 161 0 193 0 191 0 192 0 193 0 190 0 191 0 193 0 189 0 190 0 193 0 188 0 189 0 193 0 187 0 188 0 194 0 187 0 193 0 194 0 186 0 187 0 162 0 208 0 209 0 48 0 102 0 103 0 194 0 185 0 186 0 194 0 184 0 185 0 48 0 101 0 102 0 194 0 183 0 184 0 194 0 182 0 183 0 48 0 100 0 101 0 194 0 181 0 182 0 195 0 181 0 194 0 195 0 180 0 181 0 195 0 179 0 180 0 48 0 99 0 100 0 163 0 208 0 162 0 48 0 98 0 99 0 55 0 98 0 48 0 196 0 179 0 195 0 55 0 97 0 98 0 163 0 207 0 208 0 55 0 96 0 97 0 56 0 96 0 55 0 57 0 96 0 56 0 58 0 96 0 57 0 58 0 95 0 96 0 197 0 179 0 196 0 59 0 95 0 58 0 60 0 95 0 59 0 60 0 94 0 95 0 61 0 94 0 60 0 197 0 178 0 179 0 62 0 94 0 61 0 62 0 93 0 94 0 63 0 93 0 62 0 64 0 93 0 63 0 64 0 92 0 93 0 65 0 92 0 64 0 198 0 178 0 197 0 65 0 91 0 92 0 66 0 91 0 65 0 66 0 90 0 91 0 67 0 90 0 66 0 68 0 90 0 67 0 163 0 206 0 207 0 69 0 90 0 68 0 70 0 90 0 69 0 70 0 89 0 90 0 199 0 178 0 198 0 71 0 89 0 70 0 164 0 206 0 163 0 71 0 88 0 89 0 72 0 88 0 71 0 72 0 87 0 88 0 199 0 177 0 178 0 200 0 177 0 199 0 73 0 87 0 72 0 164 0 205 0 206 0 73 0 86 0 87 0 74 0 86 0 73 0 201 0 177 0 200 0 74 0 85 0 86 0 75 0 85 0 74 0 202 0 177 0 201 0 75 0 84 0 85 0 164 0 204 0 205 0 203 0 177 0 202 0 76 0 84 0 75 0 76 0 83 0 84 0 204 0 177 0 203 0 164 0 177 0 204 0 164 0 176 0 177 0 76 0 82 0 83 0 77 0 82 0 76 0 165 0 176 0 164 0 77 0 81 0 82 0 78 0 81 0 77 0 78 0 80 0 81 0 79 0 80 0 78 0 165 0 175 0 176 0 165 0 174 0 175 0 166 0 174 0 165 0 166 0 173 0 174 0 166 0 172 0 173 0 167 0 172 0 166 0 167 0 171 0 172 0 167 0 170 0 171 0 168 0 170 0 167 0 168 0 169 0 170 0</p>
        </triangles>
      </mesh>
    </geometry>
    <geometry id="CUpath3493-mesh" name="CUpath3493">
      <mesh>
        <source id="CUpath3493-mesh-positions">
          <float_array id="CUpath3493-mesh-positions-array" count="576">0.07017058 0.1530424 0 0.07017022 0.1530065 0 0.0701676 0.1529041 0 0.0701605 0.1527432 0 0.07014667 0.1525316 0 0.07012391 0.1522774 0 0.07008993 0.1519883 0 0.07004255 0.1516724 0 0.06997948 0.1513376 0 0.06989848 0.1509917 0 0.06979733 0.1506427 0 0.06967377 0.1502985 0 0.06952565 0.1499671 0 0.06951212 0.1499418 0 0.06947118 0.1498717 0 0.06940239 0.1497657 0 0.06930512 0.1496328 0 0.06917899 0.1494821 0 0.06902331 0.1493223 0 0.0688377 0.1491627 0 0.06862163 0.1490119 0 0.06837451 0.1488791 0 0.06809592 0.1487731 0 0.0677852 0.1487029 0 0.06744199 0.1486775 0 0.06741327 0.1486783 0 0.0673322 0.1486836 0 0.06720632 0.1486977 0 0.0670433 0.1487253 0 0.0668506 0.1487709 0 0.06663584 0.1488388 0 0.0664066 0.1489335 0 0.06617051 0.1490597 0 0.06593507 0.1492216 0 0.06570792 0.1494239 0 0.06549662 0.1496709 0 0.06530874 0.1499671 0 0.06529605 0.1499935 0 0.065261 0.150071 0 0.06520795 0.1501966 0 0.06514155 0.1503676 0 0.06506615 0.1505814 0 0.06498628 0.1508352 0 0.06490641 0.1511261 0 0.06483101 0.1514515 0 0.06476455 0.1518086 0 0.06471157 0.1521946 0 0.06467652 0.1526067 0 0.06466382 0.1530424 0 0.06466418 0.1530782 0 0.0646668 0.1531804 0 0.0646739 0.1533408 0 0.06468772 0.1535512 0 0.06471049 0.1538037 0 0.06474441 0.1540902 0 0.06479185 0.1544024 0 0.06485491 0.1547324 0 0.06493592 0.1550721 0 0.06503707 0.1554133 0 0.06516057 0.155748 0 0.06530874 0.156068 0 0.06532323 0.1560933 0 0.06536686 0.1561635 0 0.06543976 0.1562694 0 0.0655421 0.1564023 0 0.06567406 0.156553 0 0.06583589 0.1567128 0 0.06602764 0.1568725 0 0.06624948 0.1570233 0 0.06650173 0.1571561 0 0.06678444 0.157262 0 0.06709778 0.1573322 0 0.06744199 0.1573575 0 0.06747066 0.1573568 0 0.06755155 0.1573516 0 0.0676769 0.1573374 0 0.0678389 0.1573098 0 0.06802982 0.1572642 0 0.06824195 0.1571964 0 0.06846755 0.1571015 0 0.06869882 0.1569754 0 0.068928 0.1568135 0 0.06914734 0.1566112 0 0.06934916 0.1563642 0 0.06952565 0.156068 0 0.06953829 0.1560425 0 0.0695734 0.1559678 0 0.06962639 0.1558463 0 0.06969285 0.1556803 0 0.06976824 0.1554723 0 0.06984812 0.1552248 0 0.06992799 0.15494 0 0.07000339 0.1546204 0 0.07006978 0.1542684 0 0.07012277 0.1538864 0 0.07015788 0.153477 0 0.06897991 0.1530424 0 0.06897968 0.1530741 0 0.06897807 0.153164 0 0.06897372 0.1533043 0 0.06896519 0.1534869 0 0.06895118 0.153704 0 0.06893032 0.1539475 0 0.06890112 0.1542097 0 0.06886231 0.1544826 0 0.06881248 0.1547582 0 0.06875026 0.1550287 0 0.0686742 0.155286 0 0.06858301 0.1555224 0 0.06857573 0.1555399 0 0.06855362 0.1555885 0 0.06851637 0.1556618 0 0.06846362 0.1557538 0 0.06839495 0.1558582 0 0.0683102 0.1559687 0 0.06820881 0.1560793 0 0.06809061 0.1561837 0 0.06795513 0.1562756 0 0.06780213 0.156349 0 0.06763118 0.1563976 0 0.06744199 0.1564152 0 0.06742614 0.1564146 0 0.06738138 0.156411 0 0.06731176 0.1564012 0 0.06722152 0.1563821 0 0.06711471 0.1563506 0 0.0669955 0.1563035 0 0.06686806 0.1562379 0 0.06673645 0.1561506 0 0.06660485 0.1560385 0 0.06647735 0.1558985 0 0.06635814 0.1557275 0 0.06625133 0.1555224 0 0.06624352 0.1555039 0 0.06622195 0.1554489 0 0.06618934 0.155358 0 0.06614845 0.1552321 0 0.06610208 0.1550717 0 0.06605291 0.1548776 0 0.06600373 0.1546503 0 0.06595736 0.1543908 0 0.06591647 0.1540995 0 0.06588387 0.1537772 0 0.06586229 0.1534246 0 0.06585448 0.1530424 0 0.06585466 0.1530106 0 0.06585627 0.1529204 0 0.06586068 0.1527796 0 0.06586915 0.152596 0 0.06588315 0.1523772 0 0.06590408 0.152131 0 0.06593322 0.1518651 0 0.06597208 0.1515874 0 0.06602191 0.1513056 0 0.06608414 0.1510274 0 0.06616014 0.1507605 0 0.06625133 0.1505128 0 0.06625962 0.1504952 0 0.06628441 0.1504466 0 0.06632578 0.1503733 0 0.06638365 0.1502813 0 0.06645804 0.150177 0 0.066549 0.1500664 0 0.06665647 0.1499558 0 0.0667805 0.1498515 0 0.06692105 0.1497595 0 0.06707817 0.1496861 0 0.0672518 0.1496375 0 0.06744199 0.1496199 0 0.06745779 0.1496205 0 0.06750237 0.1496241 0 0.06757146 0.149634 0 0.06766062 0.149653 0 0.06776571 0.1496846 0 0.06788229 0.1497316 0 0.06800609 0.1497972 0 0.06813287 0.1498845 0 0.06825822 0.1499966 0 0.06837791 0.1501367 0 0.06848764 0.1503077 0 0.06858301 0.1505128 0 0.06859081 0.1505322 0 0.06861245 0.1505899 0 0.06864506 0.1506848 0 0.06868594 0.1508159 0 0.06873232 0.150982 0 0.06878149 0.1511824 0 0.0688306 0.1514157 0 0.06887704 0.1516811 0 0.06891793 0.1519775 0 0.06895053 0.1523039 0 0.06897211 0.1526592 0</float_array>
          <technique_common>
            <accessor source="#CUpath3493-mesh-positions-array" count="192" stride="3">
              <param name="X" type="float"/>
              <param name="Y" type="float"/>
              <param name="Z" type="float"/>
            </accessor>
          </technique_common>
        </source>
        <source id="CUpath3493-mesh-normals">
          <float_array id="CUpath3493-mesh-normals-array" count="3">0 0 1</float_array>
          <technique_common>
            <accessor source="#CUpath3493-mesh-normals-array" count="1" stride="3">
              <param name="X" type="float"/>
              <param name="Y" type="float"/>
              <param name="Z" type="float"/>
            </accessor>
          </technique_common>
        </source>
        <vertices id="CUpath3493-mesh-vertices">
          <input semantic="POSITION" source="#CUpath3493-mesh-positions"/>
        </vertices>
        <triangles material="SVGMat_009-material" count="192">
          <input semantic="VERTEX" source="#CUpath3493-mesh-vertices" offset="0"/>
          <input semantic="NORMAL" source="#CUpath3493-mesh-normals" offset="1"/>
          <p>71 0 73 0 72 0 71 0 74 0 73 0 71 0 75 0 74 0 71 0 76 0 75 0 70 0 76 0 71 0 70 0 77 0 76 0 70 0 78 0 77 0 69 0 78 0 70 0 69 0 79 0 78 0 68 0 79 0 69 0 68 0 80 0 79 0 67 0 80 0 68 0 67 0 81 0 80 0 66 0 81 0 67 0 66 0 82 0 81 0 65 0 82 0 66 0 65 0 83 0 82 0 64 0 120 0 65 0 120 0 83 0 65 0 64 0 121 0 120 0 119 0 83 0 120 0 64 0 122 0 121 0 64 0 123 0 122 0 63 0 123 0 64 0 63 0 124 0 123 0 118 0 83 0 119 0 63 0 125 0 124 0 118 0 84 0 83 0 63 0 126 0 125 0 117 0 84 0 118 0 63 0 127 0 126 0 116 0 84 0 117 0 62 0 127 0 63 0 62 0 128 0 127 0 115 0 84 0 116 0 61 0 128 0 62 0 61 0 129 0 128 0 60 0 129 0 61 0 114 0 84 0 115 0 59 0 129 0 60 0 114 0 85 0 84 0 114 0 86 0 85 0 59 0 130 0 129 0 113 0 86 0 114 0 113 0 87 0 86 0 59 0 131 0 130 0 112 0 87 0 113 0 112 0 88 0 87 0 111 0 88 0 112 0 58 0 131 0 59 0 58 0 132 0 131 0 111 0 89 0 88 0 110 0 89 0 111 0 109 0 89 0 110 0 108 0 89 0 109 0 58 0 133 0 132 0 107 0 89 0 108 0 58 0 134 0 133 0 107 0 90 0 89 0 58 0 135 0 134 0 57 0 135 0 58 0 57 0 136 0 135 0 106 0 90 0 107 0 57 0 137 0 136 0 106 0 91 0 90 0 56 0 137 0 57 0 56 0 138 0 137 0 105 0 91 0 106 0 105 0 92 0 91 0 56 0 139 0 138 0 104 0 92 0 105 0 55 0 139 0 56 0 55 0 140 0 139 0 104 0 93 0 92 0 103 0 93 0 104 0 54 0 140 0 55 0 54 0 141 0 140 0 103 0 94 0 93 0 102 0 94 0 103 0 54 0 142 0 141 0 53 0 142 0 54 0 101 0 94 0 102 0 101 0 95 0 94 0 52 0 142 0 53 0 52 0 143 0 142 0 100 0 95 0 101 0 51 0 143 0 52 0 99 0 95 0 100 0 99 0 0 0 95 0 51 0 144 0 143 0 50 0 144 0 51 0 98 0 0 0 99 0 49 0 144 0 50 0 97 0 0 0 98 0 48 0 144 0 49 0 96 0 0 0 97 0 47 0 144 0 48 0 47 0 145 0 144 0 191 0 0 0 96 0 191 0 1 0 0 0 47 0 146 0 145 0 191 0 2 0 1 0 47 0 147 0 146 0 191 0 3 0 2 0 47 0 148 0 147 0 191 0 4 0 3 0 190 0 4 0 191 0 46 0 148 0 47 0 46 0 149 0 148 0 190 0 5 0 4 0 46 0 150 0 149 0 189 0 5 0 190 0 189 0 6 0 5 0 45 0 150 0 46 0 45 0 151 0 150 0 189 0 7 0 6 0 188 0 7 0 189 0 45 0 152 0 151 0 44 0 152 0 45 0 187 0 7 0 188 0 187 0 8 0 7 0 44 0 153 0 152 0 43 0 153 0 44 0 186 0 8 0 187 0 186 0 9 0 8 0 43 0 154 0 153 0 185 0 9 0 186 0 42 0 154 0 43 0 42 0 155 0 154 0 185 0 10 0 9 0 184 0 10 0 185 0 41 0 155 0 42 0 183 0 10 0 184 0 41 0 156 0 155 0 182 0 10 0 183 0 182 0 11 0 10 0 181 0 11 0 182 0 40 0 156 0 41 0 180 0 11 0 181 0 40 0 157 0 156 0 179 0 11 0 180 0 40 0 158 0 157 0 40 0 159 0 158 0 40 0 160 0 159 0 39 0 160 0 40 0 178 0 11 0 179 0 178 0 12 0 11 0 39 0 161 0 160 0 38 0 161 0 39 0 38 0 162 0 161 0 177 0 12 0 178 0 37 0 162 0 38 0 37 0 163 0 162 0 176 0 12 0 177 0 36 0 163 0 37 0 35 0 163 0 36 0 176 0 13 0 12 0 35 0 164 0 163 0 176 0 14 0 13 0 175 0 14 0 176 0 175 0 15 0 14 0 35 0 165 0 164 0 174 0 15 0 175 0 174 0 16 0 15 0 35 0 166 0 165 0 173 0 16 0 174 0 35 0 167 0 166 0 172 0 16 0 173 0 34 0 167 0 35 0 171 0 16 0 172 0 34 0 168 0 167 0 170 0 16 0 171 0 170 0 17 0 16 0 169 0 17 0 170 0 168 0 17 0 169 0 34 0 17 0 168 0 34 0 18 0 17 0 33 0 18 0 34 0 33 0 19 0 18 0 32 0 19 0 33 0 32 0 20 0 19 0 31 0 20 0 32 0 31 0 21 0 20 0 30 0 21 0 31 0 30 0 22 0 21 0 29 0 22 0 30 0 29 0 23 0 22 0 28 0 23 0 29 0 27 0 23 0 28 0 27 0 24 0 23 0 26 0 24 0 27 0 25 0 24 0 26 0</p>
        </triangles>
      </mesh>
    </geometry>
    <geometry id="CUpath3495-mesh" name="CUpath3495">
      <mesh>
        <source id="CUpath3495-mesh-positions">
          <float_array id="CUpath3495-mesh-positions-array" count="576">0.07652068 0.1530424 0 0.07652032 0.1530065 0 0.0765177 0.1529041 0 0.0765106 0.1527432 0 0.07649683 0.1525316 0 0.07647407 0.1522774 0 0.07644009 0.1519883 0 0.07639265 0.1516724 0 0.07632958 0.1513376 0 0.07624858 0.1509917 0 0.07614749 0.1506427 0 0.07602393 0.1502985 0 0.07587575 0.1499671 0 0.07586222 0.1499418 0 0.07582134 0.1498717 0 0.07575249 0.1497657 0 0.07565528 0.1496328 0 0.07552909 0.1494821 0 0.07537347 0.1493223 0 0.07518786 0.1491627 0 0.07497173 0.1490119 0 0.07472467 0.1488791 0 0.07444602 0.1487731 0 0.07413536 0.1487029 0 0.07379209 0.1486775 0 0.07376343 0.1486783 0 0.07368236 0.1486836 0 0.07355648 0.1486977 0 0.0733934 0.1487253 0 0.0732007 0.1487709 0 0.07298594 0.1488388 0 0.07275676 0.1489335 0 0.07252061 0.1490597 0 0.07228523 0.1492216 0 0.07205808 0.1494239 0 0.07184678 0.1496709 0 0.0716589 0.1499671 0 0.07164621 0.1499935 0 0.0716111 0.150071 0 0.07155811 0.1501966 0 0.07149165 0.1503676 0 0.07141625 0.1505814 0 0.07133638 0.1508352 0 0.07125651 0.1511261 0 0.07118117 0.1514515 0 0.07111471 0.1518086 0 0.07106173 0.1521946 0 0.07102662 0.1526067 0 0.07101392 0.1530424 0 0.07101434 0.1530782 0 0.0710169 0.1531804 0 0.071024 0.1533408 0 0.07103782 0.1535512 0 0.07106059 0.1538037 0 0.07109457 0.1540902 0 0.07114195 0.1544024 0 0.07120501 0.1547324 0 0.07128602 0.1550721 0 0.07138717 0.1554133 0 0.07151073 0.155748 0 0.0716589 0.156068 0 0.07167339 0.1560933 0 0.07171696 0.1561635 0 0.07178986 0.1562694 0 0.07189226 0.1564023 0 0.07202422 0.156553 0 0.07218599 0.1567128 0 0.07237774 0.1568725 0 0.07259964 0.1570233 0 0.07285183 0.1571561 0 0.07313454 0.157262 0 0.07344794 0.1573322 0 0.07379209 0.1573575 0 0.07382082 0.1573568 0 0.07390171 0.1573516 0 0.074027 0.1573374 0 0.074189 0.1573098 0 0.07437998 0.1572642 0 0.07459211 0.1571964 0 0.07481765 0.1571015 0 0.07504892 0.1569754 0 0.0752781 0.1568135 0 0.0754975 0.1566112 0 0.07569926 0.1563642 0 0.07587575 0.156068 0 0.07588845 0.1560425 0 0.07592356 0.1559678 0 0.07597655 0.1558463 0 0.07604295 0.1556803 0 0.07611835 0.1554723 0 0.07619822 0.1552248 0 0.07627809 0.15494 0 0.07635349 0.1546204 0 0.07641994 0.1542684 0 0.07647293 0.1538864 0 0.07650798 0.153477 0 0.07533007 0.1530424 0 0.07532984 0.1530741 0 0.07532823 0.153164 0 0.07532382 0.1533043 0 0.07531535 0.1534869 0 0.07530134 0.153704 0 0.07528042 0.1539475 0 0.07525128 0.1542097 0 0.07521247 0.1544826 0 0.07516258 0.1547582 0 0.07510036 0.1550287 0 0.07502436 0.155286 0 0.07493317 0.1555224 0 0.07492589 0.1555399 0 0.07490378 0.1555885 0 0.07486647 0.1556618 0 0.07481372 0.1557538 0 0.07474511 0.1558582 0 0.0746603 0.1559687 0 0.07455897 0.1560793 0 0.07444071 0.1561837 0 0.07430529 0.1562756 0 0.07415229 0.156349 0 0.07398134 0.1563976 0 0.07379209 0.1564152 0 0.0737763 0.1564146 0 0.07373148 0.156411 0 0.07366192 0.1564012 0 0.07357162 0.1563821 0 0.07346487 0.1563506 0 0.07334566 0.1563035 0 0.07321816 0.1562379 0 0.07308655 0.1561506 0 0.07295495 0.1560385 0 0.07282745 0.1558985 0 0.0727083 0.1557275 0 0.07260149 0.1555224 0 0.07259368 0.1555039 0 0.07257205 0.1554489 0 0.07253944 0.155358 0 0.07249855 0.1552321 0 0.07245218 0.1550717 0 0.07240301 0.1548776 0 0.07235389 0.1546503 0 0.07230746 0.1543908 0 0.07226663 0.1540995 0 0.07223397 0.1537772 0 0.07221239 0.1534246 0 0.07220458 0.1530424 0 0.07220482 0.1530106 0 0.07220643 0.1529204 0 0.07221078 0.1527796 0 0.07221931 0.152596 0 0.07223331 0.1523772 0 0.07225418 0.152131 0 0.07228338 0.1518651 0 0.07232218 0.1515874 0 0.07237201 0.1513056 0 0.07243424 0.1510274 0 0.0725103 0.1507605 0 0.07260149 0.1505128 0 0.07260972 0.1504952 0 0.07263457 0.1504466 0 0.07267588 0.1503733 0 0.07273375 0.1502813 0 0.0728082 0.150177 0 0.07289916 0.1500664 0 0.07300662 0.1499558 0 0.07313066 0.1498515 0 0.07327121 0.1497595 0 0.07342833 0.1496861 0 0.07360196 0.1496375 0 0.07379209 0.1496199 0 0.07380795 0.1496205 0 0.07385253 0.1496241 0 0.07392156 0.149634 0 0.07401078 0.149653 0 0.07411581 0.1496846 0 0.07423239 0.1497316 0 0.07435625 0.1497972 0 0.07448297 0.1498845 0 0.07460838 0.1499966 0 0.07472807 0.1501367 0 0.07483774 0.1503077 0 0.07493317 0.1505128 0 0.07494097 0.1505322 0 0.07496255 0.1505899 0 0.07499516 0.1506848 0 0.07503604 0.1508159 0 0.07508248 0.150982 0 0.07513159 0.1511824 0 0.07518076 0.1514157 0 0.07522714 0.1516811 0 0.07526803 0.1519775 0 0.07530063 0.1523039 0 0.07532221 0.1526592 0</float_array>
          <technique_common>
            <accessor source="#CUpath3495-mesh-positions-array" count="192" stride="3">
              <param name="X" type="float"/>
              <param name="Y" type="float"/>
              <param name="Z" type="float"/>
            </accessor>
          </technique_common>
        </source>
        <source id="CUpath3495-mesh-normals">
          <float_array id="CUpath3495-mesh-normals-array" count="3">0 0 1</float_array>
          <technique_common>
            <accessor source="#CUpath3495-mesh-normals-array" count="1" stride="3">
              <param name="X" type="float"/>
              <param name="Y" type="float"/>
              <param name="Z" type="float"/>
            </accessor>
          </technique_common>
        </source>
        <vertices id="CUpath3495-mesh-vertices">
          <input semantic="POSITION" source="#CUpath3495-mesh-positions"/>
        </vertices>
        <triangles material="SVGMat_009-material" count="192">
          <input semantic="VERTEX" source="#CUpath3495-mesh-vertices" offset="0"/>
          <input semantic="NORMAL" source="#CUpath3495-mesh-normals" offset="1"/>
          <p>71 0 73 0 72 0 71 0 74 0 73 0 71 0 75 0 74 0 71 0 76 0 75 0 70 0 76 0 71 0 70 0 77 0 76 0 70 0 78 0 77 0 69 0 78 0 70 0 69 0 79 0 78 0 68 0 79 0 69 0 68 0 80 0 79 0 67 0 80 0 68 0 67 0 81 0 80 0 66 0 81 0 67 0 66 0 82 0 81 0 65 0 82 0 66 0 65 0 83 0 82 0 64 0 120 0 65 0 120 0 83 0 65 0 64 0 121 0 120 0 119 0 83 0 120 0 64 0 122 0 121 0 64 0 123 0 122 0 63 0 123 0 64 0 63 0 124 0 123 0 118 0 83 0 119 0 63 0 125 0 124 0 118 0 84 0 83 0 63 0 126 0 125 0 117 0 84 0 118 0 63 0 127 0 126 0 116 0 84 0 117 0 62 0 127 0 63 0 62 0 128 0 127 0 115 0 84 0 116 0 61 0 128 0 62 0 61 0 129 0 128 0 60 0 129 0 61 0 114 0 84 0 115 0 59 0 129 0 60 0 114 0 85 0 84 0 114 0 86 0 85 0 59 0 130 0 129 0 113 0 86 0 114 0 113 0 87 0 86 0 59 0 131 0 130 0 112 0 87 0 113 0 112 0 88 0 87 0 111 0 88 0 112 0 58 0 131 0 59 0 58 0 132 0 131 0 111 0 89 0 88 0 110 0 89 0 111 0 109 0 89 0 110 0 108 0 89 0 109 0 58 0 133 0 132 0 107 0 89 0 108 0 58 0 134 0 133 0 107 0 90 0 89 0 58 0 135 0 134 0 57 0 135 0 58 0 57 0 136 0 135 0 106 0 90 0 107 0 57 0 137 0 136 0 106 0 91 0 90 0 56 0 137 0 57 0 56 0 138 0 137 0 105 0 91 0 106 0 105 0 92 0 91 0 56 0 139 0 138 0 104 0 92 0 105 0 55 0 139 0 56 0 55 0 140 0 139 0 104 0 93 0 92 0 103 0 93 0 104 0 54 0 140 0 55 0 54 0 141 0 140 0 103 0 94 0 93 0 102 0 94 0 103 0 54 0 142 0 141 0 53 0 142 0 54 0 101 0 94 0 102 0 101 0 95 0 94 0 52 0 142 0 53 0 52 0 143 0 142 0 100 0 95 0 101 0 51 0 143 0 52 0 99 0 95 0 100 0 99 0 0 0 95 0 51 0 144 0 143 0 50 0 144 0 51 0 98 0 0 0 99 0 49 0 144 0 50 0 97 0 0 0 98 0 48 0 144 0 49 0 96 0 0 0 97 0 47 0 144 0 48 0 47 0 145 0 144 0 191 0 0 0 96 0 191 0 1 0 0 0 47 0 146 0 145 0 191 0 2 0 1 0 47 0 147 0 146 0 191 0 3 0 2 0 47 0 148 0 147 0 191 0 4 0 3 0 190 0 4 0 191 0 46 0 148 0 47 0 46 0 149 0 148 0 190 0 5 0 4 0 46 0 150 0 149 0 189 0 5 0 190 0 189 0 6 0 5 0 45 0 150 0 46 0 45 0 151 0 150 0 189 0 7 0 6 0 188 0 7 0 189 0 45 0 152 0 151 0 44 0 152 0 45 0 187 0 7 0 188 0 187 0 8 0 7 0 44 0 153 0 152 0 43 0 153 0 44 0 186 0 8 0 187 0 186 0 9 0 8 0 43 0 154 0 153 0 185 0 9 0 186 0 42 0 154 0 43 0 42 0 155 0 154 0 185 0 10 0 9 0 184 0 10 0 185 0 41 0 155 0 42 0 183 0 10 0 184 0 41 0 156 0 155 0 182 0 10 0 183 0 182 0 11 0 10 0 181 0 11 0 182 0 40 0 156 0 41 0 180 0 11 0 181 0 40 0 157 0 156 0 179 0 11 0 180 0 40 0 158 0 157 0 40 0 159 0 158 0 40 0 160 0 159 0 39 0 160 0 40 0 178 0 11 0 179 0 178 0 12 0 11 0 39 0 161 0 160 0 38 0 161 0 39 0 38 0 162 0 161 0 177 0 12 0 178 0 37 0 162 0 38 0 37 0 163 0 162 0 176 0 12 0 177 0 36 0 163 0 37 0 35 0 163 0 36 0 176 0 13 0 12 0 35 0 164 0 163 0 176 0 14 0 13 0 175 0 14 0 176 0 175 0 15 0 14 0 35 0 165 0 164 0 174 0 15 0 175 0 174 0 16 0 15 0 35 0 166 0 165 0 173 0 16 0 174 0 35 0 167 0 166 0 172 0 16 0 173 0 34 0 167 0 35 0 171 0 16 0 172 0 34 0 168 0 167 0 170 0 16 0 171 0 170 0 17 0 16 0 169 0 17 0 170 0 168 0 17 0 169 0 34 0 17 0 168 0 34 0 18 0 17 0 33 0 18 0 34 0 33 0 19 0 18 0 32 0 19 0 33 0 32 0 20 0 19 0 31 0 20 0 32 0 31 0 21 0 20 0 30 0 21 0 31 0 30 0 22 0 21 0 29 0 22 0 30 0 29 0 23 0 22 0 28 0 23 0 29 0 27 0 23 0 28 0 27 0 24 0 23 0 26 0 24 0 27 0 25 0 24 0 26 0</p>
        </triangles>
      </mesh>
    </geometry>
    <geometry id="CUpath3497-mesh" name="CUpath3497">
      <mesh>
        <source id="CUpath3497-mesh-positions">
          <float_array id="CUpath3497-mesh-positions-array" count="576">0.08287084 0.1530424 0 0.08287048 0.1530065 0 0.08286786 0.1529041 0 0.08286076 0.1527432 0 0.08284693 0.1525316 0 0.08282417 0.1522774 0 0.08279019 0.1519883 0 0.08274281 0.1516724 0 0.08267974 0.1513376 0 0.08259874 0.1509917 0 0.08249759 0.1506427 0 0.08237403 0.1502985 0 0.08222591 0.1499671 0 0.08221238 0.1499418 0 0.08217144 0.1498717 0 0.08210265 0.1497657 0 0.08200538 0.1496328 0 0.08187925 0.1494821 0 0.08172357 0.1493223 0 0.08153796 0.1491627 0 0.08132189 0.1490119 0 0.08107477 0.1488791 0 0.08079618 0.1487731 0 0.08048546 0.1487029 0 0.08014225 0.1486775 0 0.08011353 0.1486783 0 0.08003246 0.1486836 0 0.07990658 0.1486977 0 0.07974356 0.1487253 0 0.07955086 0.1487709 0 0.0793361 0.1488388 0 0.07910686 0.1489335 0 0.07887077 0.1490597 0 0.07863533 0.1492216 0 0.07840818 0.1494239 0 0.07819688 0.1496709 0 0.078009 0.1499671 0 0.07799631 0.1499935 0 0.07796126 0.150071 0 0.07790821 0.1501966 0 0.07784181 0.1503676 0 0.07776641 0.1505814 0 0.07768654 0.1508352 0 0.07760667 0.1511261 0 0.07753127 0.1514515 0 0.07746481 0.1518086 0 0.07741183 0.1521946 0 0.07737678 0.1526067 0 0.07736408 0.1530424 0 0.07736444 0.1530782 0 0.07736706 0.1531804 0 0.07737416 0.1533408 0 0.07738798 0.1535512 0 0.07741075 0.1538037 0 0.07744467 0.1540902 0 0.07749211 0.1544024 0 0.07755517 0.1547324 0 0.07763618 0.1550721 0 0.07773733 0.1554133 0 0.07786083 0.155748 0 0.078009 0.156068 0 0.07802349 0.1560933 0 0.07806712 0.1561635 0 0.07814002 0.1562694 0 0.07824236 0.1564023 0 0.07837432 0.156553 0 0.07853615 0.1567128 0 0.0787279 0.1568725 0 0.07894974 0.1570233 0 0.07920199 0.1571561 0 0.0794847 0.157262 0 0.07979804 0.1573322 0 0.08014225 0.1573575 0 0.08017092 0.1573568 0 0.08025181 0.1573516 0 0.08037716 0.1573374 0 0.08053916 0.1573098 0 0.08073008 0.1572642 0 0.08094221 0.1571964 0 0.08116781 0.1571015 0 0.08139908 0.1569754 0 0.08162826 0.1568135 0 0.0818476 0.1566112 0 0.08204942 0.1563642 0 0.08222591 0.156068 0 0.08223855 0.1560425 0 0.08227366 0.1559678 0 0.08232665 0.1558463 0 0.0823931 0.1556803 0 0.0824685 0.1554723 0 0.08254837 0.1552248 0 0.08262825 0.15494 0 0.08270364 0.1546204 0 0.08277004 0.1542684 0 0.08282303 0.1538864 0 0.08285814 0.153477 0 0.08168017 0.1530424 0 0.08167994 0.1530741 0 0.08167833 0.153164 0 0.08167397 0.1533043 0 0.08166545 0.1534869 0 0.08165144 0.153704 0 0.08163058 0.1539475 0 0.08160138 0.1542097 0 0.08156257 0.1544826 0 0.08151274 0.1547582 0 0.08145052 0.1550287 0 0.08137446 0.155286 0 0.08128327 0.1555224 0 0.08127599 0.1555399 0 0.08125388 0.1555885 0 0.08121663 0.1556618 0 0.08116388 0.1557538 0 0.08109521 0.1558582 0 0.08101046 0.1559687 0 0.08090907 0.1560793 0 0.08079087 0.1561837 0 0.08065539 0.1562756 0 0.08050239 0.156349 0 0.08033144 0.1563976 0 0.08014225 0.1564152 0 0.0801264 0.1564146 0 0.08008164 0.156411 0 0.08001202 0.1564012 0 0.07992178 0.1563821 0 0.07981497 0.1563506 0 0.07969576 0.1563035 0 0.07956832 0.1562379 0 0.07943671 0.1561506 0 0.07930511 0.1560385 0 0.07917761 0.1558985 0 0.0790584 0.1557275 0 0.07895159 0.1555224 0 0.07894378 0.1555039 0 0.07892221 0.1554489 0 0.0788896 0.155358 0 0.07884871 0.1552321 0 0.07880234 0.1550717 0 0.07875317 0.1548776 0 0.07870399 0.1546503 0 0.07865762 0.1543908 0 0.07861673 0.1540995 0 0.07858413 0.1537772 0 0.07856255 0.1534246 0 0.07855474 0.1530424 0 0.07855492 0.1530106 0 0.07855653 0.1529204 0 0.07856094 0.1527796 0 0.07856941 0.152596 0 0.07858341 0.1523772 0 0.07860434 0.152131 0 0.07863348 0.1518651 0 0.07867234 0.1515874 0 0.07872217 0.1513056 0 0.0787844 0.1510274 0 0.0788604 0.1507605 0 0.07895159 0.1505128 0 0.07895988 0.1504952 0 0.07898467 0.1504466 0 0.07902604 0.1503733 0 0.07908391 0.1502813 0 0.0791583 0.150177 0 0.07924926 0.1500664 0 0.07935672 0.1499558 0 0.07948076 0.1498515 0 0.07962131 0.1497595 0 0.07977843 0.1496861 0 0.07995206 0.1496375 0 0.08014225 0.1496199 0 0.08015805 0.1496205 0 0.08020263 0.1496241 0 0.08027172 0.149634 0 0.08036088 0.149653 0 0.08046597 0.1496846 0 0.08058255 0.1497316 0 0.08070635 0.1497972 0 0.08083313 0.1498845 0 0.08095848 0.1499966 0 0.08107817 0.1501367 0 0.0811879 0.1503077 0 0.08128327 0.1505128 0 0.08129107 0.1505322 0 0.08131271 0.1505899 0 0.08134531 0.1506848 0 0.0813862 0.1508159 0 0.08143258 0.150982 0 0.08148175 0.1511824 0 0.08153086 0.1514157 0 0.0815773 0.1516811 0 0.08161818 0.1519775 0 0.08165079 0.1523039 0 0.08167237 0.1526592 0</float_array>
          <technique_common>
            <accessor source="#CUpath3497-mesh-positions-array" count="192" stride="3">
              <param name="X" type="float"/>
              <param name="Y" type="float"/>
              <param name="Z" type="float"/>
            </accessor>
          </technique_common>
        </source>
        <source id="CUpath3497-mesh-normals">
          <float_array id="CUpath3497-mesh-normals-array" count="3">0 0 1</float_array>
          <technique_common>
            <accessor source="#CUpath3497-mesh-normals-array" count="1" stride="3">
              <param name="X" type="float"/>
              <param name="Y" type="float"/>
              <param name="Z" type="float"/>
            </accessor>
          </technique_common>
        </source>
        <vertices id="CUpath3497-mesh-vertices">
          <input semantic="POSITION" source="#CUpath3497-mesh-positions"/>
        </vertices>
        <triangles material="SVGMat_009-material" count="192">
          <input semantic="VERTEX" source="#CUpath3497-mesh-vertices" offset="0"/>
          <input semantic="NORMAL" source="#CUpath3497-mesh-normals" offset="1"/>
          <p>71 0 73 0 72 0 71 0 74 0 73 0 71 0 75 0 74 0 71 0 76 0 75 0 70 0 76 0 71 0 70 0 77 0 76 0 70 0 78 0 77 0 69 0 78 0 70 0 69 0 79 0 78 0 68 0 79 0 69 0 68 0 80 0 79 0 67 0 80 0 68 0 67 0 81 0 80 0 66 0 81 0 67 0 66 0 82 0 81 0 65 0 82 0 66 0 65 0 83 0 82 0 64 0 120 0 65 0 120 0 83 0 65 0 64 0 121 0 120 0 119 0 83 0 120 0 64 0 122 0 121 0 64 0 123 0 122 0 63 0 123 0 64 0 63 0 124 0 123 0 118 0 83 0 119 0 63 0 125 0 124 0 118 0 84 0 83 0 63 0 126 0 125 0 117 0 84 0 118 0 63 0 127 0 126 0 116 0 84 0 117 0 62 0 127 0 63 0 62 0 128 0 127 0 115 0 84 0 116 0 61 0 128 0 62 0 61 0 129 0 128 0 60 0 129 0 61 0 114 0 84 0 115 0 59 0 129 0 60 0 114 0 85 0 84 0 114 0 86 0 85 0 59 0 130 0 129 0 113 0 86 0 114 0 113 0 87 0 86 0 59 0 131 0 130 0 112 0 87 0 113 0 112 0 88 0 87 0 111 0 88 0 112 0 58 0 131 0 59 0 58 0 132 0 131 0 111 0 89 0 88 0 110 0 89 0 111 0 109 0 89 0 110 0 108 0 89 0 109 0 58 0 133 0 132 0 107 0 89 0 108 0 58 0 134 0 133 0 107 0 90 0 89 0 58 0 135 0 134 0 57 0 135 0 58 0 57 0 136 0 135 0 106 0 90 0 107 0 57 0 137 0 136 0 106 0 91 0 90 0 56 0 137 0 57 0 56 0 138 0 137 0 105 0 91 0 106 0 105 0 92 0 91 0 56 0 139 0 138 0 104 0 92 0 105 0 55 0 139 0 56 0 55 0 140 0 139 0 104 0 93 0 92 0 103 0 93 0 104 0 54 0 140 0 55 0 54 0 141 0 140 0 103 0 94 0 93 0 102 0 94 0 103 0 54 0 142 0 141 0 53 0 142 0 54 0 101 0 94 0 102 0 101 0 95 0 94 0 52 0 142 0 53 0 52 0 143 0 142 0 100 0 95 0 101 0 51 0 143 0 52 0 99 0 95 0 100 0 99 0 0 0 95 0 51 0 144 0 143 0 50 0 144 0 51 0 98 0 0 0 99 0 49 0 144 0 50 0 97 0 0 0 98 0 48 0 144 0 49 0 96 0 0 0 97 0 47 0 144 0 48 0 47 0 145 0 144 0 191 0 0 0 96 0 191 0 1 0 0 0 47 0 146 0 145 0 191 0 2 0 1 0 47 0 147 0 146 0 191 0 3 0 2 0 47 0 148 0 147 0 191 0 4 0 3 0 190 0 4 0 191 0 46 0 148 0 47 0 46 0 149 0 148 0 190 0 5 0 4 0 46 0 150 0 149 0 189 0 5 0 190 0 189 0 6 0 5 0 45 0 150 0 46 0 45 0 151 0 150 0 189 0 7 0 6 0 188 0 7 0 189 0 45 0 152 0 151 0 44 0 152 0 45 0 187 0 7 0 188 0 187 0 8 0 7 0 44 0 153 0 152 0 43 0 153 0 44 0 186 0 8 0 187 0 186 0 9 0 8 0 43 0 154 0 153 0 185 0 9 0 186 0 42 0 154 0 43 0 42 0 155 0 154 0 185 0 10 0 9 0 184 0 10 0 185 0 41 0 155 0 42 0 183 0 10 0 184 0 41 0 156 0 155 0 182 0 10 0 183 0 182 0 11 0 10 0 181 0 11 0 182 0 40 0 156 0 41 0 180 0 11 0 181 0 40 0 157 0 156 0 179 0 11 0 180 0 40 0 158 0 157 0 40 0 159 0 158 0 40 0 160 0 159 0 39 0 160 0 40 0 178 0 11 0 179 0 178 0 12 0 11 0 39 0 161 0 160 0 38 0 161 0 39 0 38 0 162 0 161 0 177 0 12 0 178 0 37 0 162 0 38 0 37 0 163 0 162 0 176 0 12 0 177 0 36 0 163 0 37 0 35 0 163 0 36 0 176 0 13 0 12 0 35 0 164 0 163 0 176 0 14 0 13 0 175 0 14 0 176 0 175 0 15 0 14 0 35 0 165 0 164 0 174 0 15 0 175 0 174 0 16 0 15 0 35 0 166 0 165 0 173 0 16 0 174 0 35 0 167 0 166 0 172 0 16 0 173 0 34 0 167 0 35 0 171 0 16 0 172 0 34 0 168 0 167 0 170 0 16 0 171 0 170 0 17 0 16 0 169 0 17 0 170 0 168 0 17 0 169 0 34 0 17 0 168 0 34 0 18 0 17 0 33 0 18 0 34 0 33 0 19 0 18 0 32 0 19 0 33 0 32 0 20 0 19 0 31 0 20 0 32 0 31 0 21 0 20 0 30 0 21 0 31 0 30 0 22 0 21 0 29 0 22 0 30 0 29 0 23 0 22 0 28 0 23 0 29 0 27 0 23 0 28 0 27 0 24 0 23 0 26 0 24 0 27 0 25 0 24 0 26 0</p>
        </triangles>
      </mesh>
    </geometry>
    <geometry id="CUpath3499-mesh" name="CUpath3499">
      <mesh>
        <source id="CUpath3499-mesh-positions">
          <float_array id="CUpath3499-mesh-positions-array" count="12">0.08703809 0.1487768 0 0.08589708 0.1487768 0 0.08589708 0.1572583 0 0.08703809 0.1572583 0</float_array>
          <technique_common>
            <accessor source="#CUpath3499-mesh-positions-array" count="4" stride="3">
              <param name="X" type="float"/>
              <param name="Y" type="float"/>
              <param name="Z" type="float"/>
            </accessor>
          </technique_common>
        </source>
        <source id="CUpath3499-mesh-normals">
          <float_array id="CUpath3499-mesh-normals-array" count="3">0 0 1</float_array>
          <technique_common>
            <accessor source="#CUpath3499-mesh-normals-array" count="1" stride="3">
              <param name="X" type="float"/>
              <param name="Y" type="float"/>
              <param name="Z" type="float"/>
            </accessor>
          </technique_common>
        </source>
        <vertices id="CUpath3499-mesh-vertices">
          <input semantic="POSITION" source="#CUpath3499-mesh-positions"/>
        </vertices>
        <triangles material="SVGMat_009-material" count="2">
          <input semantic="VERTEX" source="#CUpath3499-mesh-vertices" offset="0"/>
          <input semantic="NORMAL" source="#CUpath3499-mesh-normals" offset="1"/>
          <p>1 0 3 0 2 0 1 0 0 0 3 0</p>
        </triangles>
      </mesh>
    </geometry>
    <geometry id="ID5-mesh" name="ID5">
      <mesh>
        <source id="ID5-mesh-positions">
          <float_array id="ID5-mesh-positions-array" count="171">0 6.286116 0.6141732 0 0 0 0 0 0.6653543 0 6.286116 0 0 6.286116 0 0 6.286116 0.6141732 0 0 0 0 0 0.6653543 0 6.286116 0.6141732 0 0 0.6653543 0 6.286116 0 0 0 0 14.97031 0 0.6653543 0 6.286116 0.6141732 0 0 0.6653543 14.97031 6.286116 0.6141732 14.97031 6.286116 0.6141732 14.97031 0 0.6653543 0 6.286116 0.6141732 0 0 0.6653543 14.97031 0 0.6653543 14.97031 6.286116 0.6141732 0 6.286116 0.6141732 14.97031 6.286116 0 0 6.286116 0 14.97031 6.286116 0.6141732 14.97031 6.286116 0.6141732 0 6.286116 0.6141732 14.97031 6.286116 0 0 6.286116 0 14.97031 6.286116 0 14.97031 6.286116 0 0 0 0 0 6.286116 0 14.97031 0 0 14.97031 0 0 14.97031 6.286116 0 0 0 0 0 6.286116 0 14.97031 0 0 14.97031 0 0.6653543 0 0 0 14.97031 0 0 0 0 0.6653543 0 0 0.6653543 14.97031 0 0.6653543 0 0 0 14.97031 0 0 14.97031 0 0 14.97031 6.286116 0.6141732 14.97031 0 0.6653543 14.97031 6.286116 0 14.97031 6.286116 0 14.97031 0 0 14.97031 6.286116 0.6141732 14.97031 0 0.6653543 14.97031 6.286116 0.6141732</float_array>
          <technique_common>
            <accessor source="#ID5-mesh-positions-array" count="57" stride="3">
              <param name="X" type="float"/>
              <param name="Y" type="float"/>
              <param name="Z" type="float"/>
            </accessor>
          </technique_common>
        </source>
        <source id="ID5-mesh-normals">
          <float_array id="ID5-mesh-normals-array" count="42">-1 0 0 1 0 0 0 0.008141636 0.9999669 0 -0.008141636 -0.9999669 0 1 0 0 -1 0 0 0 -1 0 0 1 0 -1 0 0 1 0 1 3.13522e-7 0 1 0 0 -1 -4.56031e-7 0 0 0 1</float_array>
          <technique_common>
            <accessor source="#ID5-mesh-normals-array" count="14" stride="3">
              <param name="X" type="float"/>
              <param name="Y" type="float"/>
              <param name="Z" type="float"/>
            </accessor>
          </technique_common>
        </source>
        <source id="ID5-mesh-map-0">
          <float_array id="ID5-mesh-map-0-array" count="150">-0.4201772 0.09537976 0 0 0 0.1033281 0 0 -0.4201772 0.09537976 -0.4201772 0 -0.4201772 0 -0.4201772 0.09537976 0 0 0 0.1033281 0 0 -0.4201772 0.09537976 -1.000647 8.41262e-4 0 -0.9754112 0 8.41262e-4 0 -0.9754112 -1.000647 8.41262e-4 -1.000647 -0.9754112 -1.000647 -0.9754112 -1.000647 8.41262e-4 0 -0.9754112 0 8.41262e-4 0 -0.9754112 -1.000647 8.41262e-4 0 0.09537976 -1.000647 0 0 0 -1.000647 0 0 0.09537976 -1.000647 0.09537976 -1.000647 0.09537976 0 0.09537976 -1.000647 0 0 0 -1.000647 0 0 0.09537976 -1.000647 0.9762201 0 0 0 0.9762201 0 0 -1.000647 0.9762201 -1.000647 0 -1.000647 0 -1.000647 0.9762201 0 0 0 0.9762201 0 0 -1.000647 0.9762201 1.000647 0.1033281 0 0 1.000647 0 0 0 1.000647 0.1033281 0 0.1033281 0 0.1033281 1.000647 0.1033281 0 0 1.000647 0 0 0 1.000647 0.1033281 0 0 0.4201772 0.09537976 0 0.1033281 0.4201772 0.09537976 0 0 0.4201772 0 0.4201772 0 0 0 0.4201772 0.09537976 0 0.1033281 0.4201772 0.09537976 0 0 0 0 0.4201772 0.09537976 0.4201772 0.09537976</float_array>
          <technique_common>
            <accessor source="#ID5-mesh-map-0-array" count="75" stride="2">
              <param name="S" type="float"/>
              <param name="T" type="float"/>
            </accessor>
          </technique_common>
        </source>
        <vertices id="ID5-mesh-vertices">
          <input semantic="POSITION" source="#ID5-mesh-positions"/>
        </vertices>
        <lines count="12">
          <input semantic="VERTEX" source="#ID5-mesh-vertices" offset="0"/>
          <p>9 8 8 10 11 10 9 11 20 9 21 20 8 21 10 30 21 30 30 39 39 11 20 39</p>
        </lines>
        <triangles material="Material_001-material" count="25">
          <input semantic="VERTEX" source="#ID5-mesh-vertices" offset="0"/>
          <input semantic="NORMAL" source="#ID5-mesh-normals" offset="1"/>
          <input semantic="TEXCOORD" source="#ID5-mesh-map-0" offset="2" set="0"/>
          <p>0 0 0 1 0 1 2 0 2 1 0 3 0 0 4 3 0 5 4 1 6 5 1 7 6 1 8 7 1 9 6 1 10 5 1 11 12 2 12 13 2 13 14 2 14 13 2 15 12 2 16 15 2 17 16 3 18 17 3 19 18 3 20 19 3 21 18 3 22 17 3 23 22 4 24 23 4 25 24 4 26 23 4 27 22 4 28 25 4 29 26 5 30 27 5 31 28 5 32 29 5 33 28 5 34 27 5 35 31 6 36 32 6 37 33 6 38 32 6 39 31 6 40 34 6 41 35 7 42 36 7 43 37 7 44 38 7 45 37 7 46 36 7 47 40 8 48 41 8 49 42 8 50 41 8 51 40 8 52 43 8 53 44 9 54 45 9 55 46 9 56 47 9 57 46 9 58 45 9 59 48 10 60 49 10 61 50 10 62 49 11 63 48 11 64 51 11 65 52 0 66 53 0 67 54 0 68 55 12 69 56 12 70 53 12 71 53 13 72 56 13 73 54 13 74</p>
        </triangles>
      </mesh>
    </geometry>
  </library_geometries>
  <library_controllers/>
  <library_visual_scenes>
    <visual_scene id="Scene" name="Scene">
      <node id="Cube_001" name="Cube_001" type="NODE">
        <matrix sid="transform">0.19 0 0 -0.007 0 0.07799999 0 -0.002 0 0 0.0015 0.01 0 0 0 1</matrix>
        <instance_geometry url="#Cube_002-mesh" name="Cube_001">
          <bind_material>
            <technique_common>
              <instance_material symbol="Material-material" target="#Material-material"/>
            </technique_common>
          </bind_material>
        </instance_geometry>
      </node>
      <node id="Curve" name="Curve" type="NODE">
        <matrix sid="transform">8.64 0 0 -0.6058621 0 8.64 0 -1.373429 0 0 8.64 0.008320562 0 0 0 1</matrix>
        <instance_geometry url="#CUpath3485-mesh" name="Curve">
          <bind_material>
            <technique_common>
              <instance_material symbol="SVGMat_009-material" target="#SVGMat_009-material"/>
            </technique_common>
          </bind_material>
        </instance_geometry>
      </node>
      <node id="Curve_001" name="Curve_001" type="NODE">
        <matrix sid="transform">8.64 0 0 -0.6058621 0 8.64 0 -1.373429 0 0 8.64 0.008320562 0 0 0 1</matrix>
        <instance_geometry url="#CUpath3487-mesh" name="Curve_001">
          <bind_material>
            <technique_common>
              <instance_material symbol="SVGMat_009-material" target="#SVGMat_009-material"/>
            </technique_common>
          </bind_material>
        </instance_geometry>
      </node>
      <node id="Curve_002" name="Curve_002" type="NODE">
        <matrix sid="transform">8.64 0 0 -0.6058621 0 8.64 0 -1.373429 0 0 8.64 0.008320562 0 0 0 1</matrix>
        <instance_geometry url="#CUpath3489-mesh" name="Curve_002">
          <bind_material>
            <technique_common>
              <instance_material symbol="SVGMat_009-material" target="#SVGMat_009-material"/>
            </technique_common>
          </bind_material>
        </instance_geometry>
      </node>
      <node id="Curve_003" name="Curve_003" type="NODE">
        <matrix sid="transform">8.64 0 0 -0.5963004 0 8.64 0 -1.336973 0 0 8.64 0.00898614 0 0 0 1</matrix>
        <instance_geometry url="#CUpath3491-mesh" name="Curve_003">
          <bind_material>
            <technique_common>
              <instance_material symbol="SVGMat_009-material" target="#SVGMat_009-material"/>
            </technique_common>
          </bind_material>
        </instance_geometry>
      </node>
      <node id="Curve_004" name="Curve_004" type="NODE">
        <matrix sid="transform">8.64 0 0 -0.5963004 0 8.64 0 -1.336973 0 0 8.64 0.00898614 0 0 0 1</matrix>
        <instance_geometry url="#CUpath3493-mesh" name="Curve_004">
          <bind_material>
            <technique_common>
              <instance_material symbol="SVGMat_009-material" target="#SVGMat_009-material"/>
            </technique_common>
          </bind_material>
        </instance_geometry>
      </node>
      <node id="Curve_005" name="Curve_005" type="NODE">
        <matrix sid="transform">8.64 0 0 -0.5963004 0 8.64 0 -1.336973 0 0 8.64 0.00898614 0 0 0 1</matrix>
        <instance_geometry url="#CUpath3495-mesh" name="Curve_005">
          <bind_material>
            <technique_common>
              <instance_material symbol="SVGMat_009-material" target="#SVGMat_009-material"/>
            </technique_common>
          </bind_material>
        </instance_geometry>
      </node>
      <node id="Curve_006" name="Curve_006" type="NODE">
        <matrix sid="transform">8.64 0 0 -0.5963004 0 8.64 0 -1.336973 0 0 8.64 0.00898614 0 0 0 1</matrix>
        <instance_geometry url="#CUpath3497-mesh" name="Curve_006">
          <bind_material>
            <technique_common>
              <instance_material symbol="SVGMat_009-material" target="#SVGMat_009-material"/>
            </technique_common>
          </bind_material>
        </instance_geometry>
      </node>
      <node id="Curve_007" name="Curve_007" type="NODE">
        <matrix sid="transform">8.64 0 0 -0.5963004 0 8.64 0 -1.336973 0 0 8.64 0.00898614 0 0 0 1</matrix>
        <instance_geometry url="#CUpath3499-mesh" name="Curve_007">
          <bind_material>
            <technique_common>
              <instance_material symbol="SVGMat_009-material" target="#SVGMat_009-material"/>
            </technique_common>
          </bind_material>
        </instance_geometry>
      </node>
      <node id="SketchUp" name="SketchUp" type="NODE">
        <matrix sid="transform">0.0254 0 0 0 0 0.0254 0 0 0 0 0.0254 0 0 0 0 1</matrix>
        <node id="instance_0" name="instance_0" type="NODE">
          <matrix sid="transform">0.9999999 0 0 -7.770906 0 0.9999999 0 -3.209046 0 0 0.5 0 0 0 0 1</matrix>
          <instance_geometry url="#ID5-mesh" name="instance_0">
            <bind_material>
              <technique_common>
                <instance_material symbol="Material_001-material" target="#Material_001-material"/>
              </technique_common>
            </bind_material>
          </instance_geometry>
        </node>
      </node>
    </visual_scene>
  </library_visual_scenes>
  <scene>
    <instance_visual_scene url="#Scene"/>
  </scene>
</COLLADA>